<svg xmlns="http://www.w3.org/2000/svg" xmlns:xlink="http://www.w3.org/1999/xlink" width="502" zoomAndPan="magnify" viewBox="0 0 376.5 262.499992" height="350" preserveAspectRatio="xMidYMid meet" version="1.0"><defs><clipPath id="cd13ea05d8"><path d="M 1 0 L 375.890625 0 L 375.890625 262 L 1 262 Z M 1 0 " clip-rule="nonzero"/></clipPath><clipPath id="f03f61bef1"><path d="M 52 72 L 375.890625 72 L 375.890625 262 L 52 262 Z M 52 72 " clip-rule="nonzero"/></clipPath></defs><g clip-path="url(#cd13ea05d8)"><path fill="#ffffff" d="M 118.261719 148.503906 L 118.261719 181.660156 C 118.261719 181.992188 117.988281 182.261719 117.65625 182.261719 L 74.007812 182.261719 C 71.40625 183.898438 68.347656 184.820312 65.105469 184.820312 C 61.851562 184.820312 58.824219 183.875 56.25 182.261719 L 41.828125 182.261719 C 41.71875 182.367188 41.570312 182.4375 41.40625 182.4375 L 25.824219 182.4375 C 22.347656 182.4375 19.519531 179.609375 19.519531 176.132812 L 19.519531 175.636719 C 11.707031 174.808594 5.691406 171.390625 2.808594 166.027344 C 0.15625 161.097656 0.550781 155.175781 3.894531 149.78125 C 7.925781 143.273438 14.234375 139.574219 19.519531 137.5 L 19.519531 131.703125 C 19.519531 129.234375 20.972656 126.980469 23.21875 125.960938 L 41.15625 117.820312 C 41.15625 117.816406 41.160156 117.820312 41.160156 117.816406 C 41.234375 117.785156 41.316406 117.765625 41.40625 117.765625 L 52.546875 117.765625 L 52.546875 100.3125 L 25.824219 100.3125 C 22.347656 100.3125 19.519531 97.484375 19.519531 94.011719 L 19.519531 71.316406 C 19.519531 68.851562 20.972656 66.597656 23.21875 65.578125 L 41.15625 57.433594 C 41.15625 57.433594 41.160156 57.433594 41.160156 57.433594 C 41.234375 57.402344 41.316406 57.378906 41.40625 57.378906 L 52.546875 57.378906 L 52.546875 47.328125 C 49.476562 47.039062 47.054688 44.472656 47.054688 41.328125 C 47.054688 37.984375 49.773438 35.265625 53.117188 35.265625 C 56.457031 35.265625 59.175781 37.984375 59.175781 41.328125 C 59.175781 44.449219 56.792969 46.996094 53.753906 47.320312 L 53.753906 57.378906 L 88.777344 57.378906 L 88.777344 47.328125 C 85.707031 47.039062 83.285156 44.472656 83.285156 41.328125 C 83.285156 37.984375 86.003906 35.265625 89.347656 35.265625 C 92.6875 35.265625 95.40625 37.984375 95.40625 41.328125 C 95.40625 44.449219 93.023438 46.996094 89.984375 47.320312 L 89.984375 57.378906 L 117.65625 57.378906 C 117.988281 57.378906 118.257812 57.652344 118.257812 57.984375 L 118.257812 99.710938 C 118.257812 100.042969 117.988281 100.3125 117.65625 100.3125 L 78.304688 100.3125 L 78.304688 117.765625 L 117.65625 117.765625 C 117.988281 117.765625 118.257812 118.035156 118.257812 118.367188 L 118.257812 130.957031 C 121.234375 129.878906 124.828125 128.09375 128.375 125.101562 C 133.25 121 134.855469 113.984375 135.347656 108.859375 L 135.347656 103.742188 C 130.089844 100.914062 126.503906 95.359375 126.503906 88.984375 C 126.503906 82.09375 130.640625 76 137.042969 73.441406 C 137.734375 72.925781 138.585938 72.613281 139.511719 72.613281 L 241.726562 72.613281 C 244.023438 72.613281 245.890625 74.480469 245.890625 76.777344 L 245.890625 115.238281 C 245.890625 117.535156 244.023438 119.402344 241.726562 119.402344 L 231.789062 119.402344 L 231.789062 139.347656 C 231.789062 139.59375 231.644531 139.8125 231.417969 139.90625 C 231.34375 139.9375 231.265625 139.953125 231.1875 139.953125 C 231.027344 139.953125 230.875 139.890625 230.757812 139.773438 L 210.386719 119.402344 L 150.074219 119.402344 C 148.789062 124.492188 146.515625 130.015625 142.527344 134.925781 C 135.25 143.890625 125.003906 147.246094 118.261719 148.503906 Z M 139.515625 46.941406 L 149.449219 46.941406 L 149.449219 66.886719 C 149.449219 67.132812 149.597656 67.351562 149.824219 67.445312 C 149.898438 67.476562 149.976562 67.492188 150.054688 67.492188 C 150.210938 67.492188 150.367188 67.429688 150.480469 67.3125 L 170.855469 46.941406 L 241.730469 46.941406 C 244.027344 46.941406 245.894531 45.074219 245.894531 42.777344 L 245.894531 4.316406 C 245.894531 2.019531 244.027344 0.152344 241.730469 0.152344 L 139.515625 0.152344 C 137.21875 0.152344 135.347656 2.019531 135.347656 4.316406 L 135.347656 42.777344 C 135.347656 45.074219 137.21875 46.941406 139.515625 46.941406 Z M 376.28125 188.582031 C 376.28125 209.90625 367.101562 229.125 352.488281 242.5 C 352.378906 243.542969 352.222656 244.574219 352.011719 245.554688 C 350.363281 253.117188 343.414062 255.824219 331.941406 256.765625 L 332.484375 260.710938 C 332.507812 260.875 332.460938 261.042969 332.359375 261.171875 C 332.253906 261.300781 332.101562 261.382812 331.9375 261.394531 L 331.589844 261.425781 C 331.417969 261.445312 331.246094 261.460938 331.066406 261.472656 C 326.453125 261.769531 317.929688 261.871094 308.621094 261.871094 C 305.726562 261.871094 302.757812 261.859375 299.808594 261.84375 C 299.714844 261.851562 299.625 261.875 299.53125 261.875 L 151.660156 261.875 C 150.097656 261.875 148.703125 260.882812 148.191406 259.40625 L 125.589844 194.496094 C 125.328125 193.75 125.445312 192.953125 125.902344 192.308594 C 126.359375 191.664062 127.074219 191.292969 127.867188 191.292969 L 212.804688 191.292969 C 214.164062 191.292969 215.375 192.15625 215.824219 193.441406 L 231.839844 239.445312 C 233.332031 238.828125 234.960938 238.523438 236.671875 238.613281 L 238.105469 238.675781 C 238.527344 238.691406 238.929688 238.707031 239.328125 238.726562 L 246.703125 234.996094 C 236.300781 222.359375 230.042969 206.1875 230.042969 188.582031 C 230.042969 157.570312 249.457031 131.027344 276.761719 120.414062 C 277.210938 119.273438 277.886719 118.246094 278.777344 117.398438 C 281.984375 114.34375 294.011719 110.257812 303.390625 111.078125 C 308.398438 111.515625 312.054688 113.246094 314.25 116.226562 C 314.269531 116.253906 314.285156 116.285156 314.304688 116.3125 C 349.351562 121.691406 376.28125 152.050781 376.28125 188.582031 Z M 246.175781 254.246094 C 245.953125 254.78125 245.710938 255.242188 245.460938 255.589844 L 267.925781 255.589844 L 268.035156 253.085938 C 267.988281 252.941406 267.945312 252.785156 267.910156 252.617188 C 267.148438 252.195312 266.394531 251.761719 265.648438 251.316406 C 265.125 251.71875 264.644531 252.023438 264.210938 252.160156 C 263.441406 252.402344 262.378906 252.253906 261.644531 251.601562 C 259.125 252.660156 256.101562 253.484375 252.730469 253.925781 C 252.695312 253.9375 252.664062 253.957031 252.625 253.96875 C 252.3125 254.050781 251.976562 254.070312 251.636719 254.054688 C 250.304688 254.191406 248.925781 254.273438 247.5 254.273438 C 247.0625 254.273438 246.617188 254.261719 246.175781 254.246094 Z M 115.925781 233.933594 C 74.253906 232.691406 68.105469 202.183594 68.046875 201.875 C 67.988281 201.546875 67.671875 201.328125 67.34375 201.390625 C 67.015625 201.453125 66.800781 201.765625 66.859375 202.09375 C 66.917969 202.414062 73.210938 233.871094 115.890625 235.140625 C 115.894531 235.140625 115.902344 235.140625 115.910156 235.140625 C 116.234375 235.140625 116.503906 234.882812 116.511719 234.554688 C 116.523438 234.222656 116.261719 233.945312 115.925781 233.933594 Z M 295.746094 30.625 C 295.746094 30.292969 296.015625 30.023438 296.351562 30.023438 C 322.957031 30.023438 339.730469 39.527344 341.222656 55.449219 C 341.484375 58.230469 341.371094 61.191406 340.882812 64.132812 C 345.976562 64.351562 352.417969 65.945312 355.886719 71.929688 C 365.214844 88.023438 352.488281 106.890625 352.359375 107.078125 C 352.242188 107.25 352.054688 107.339844 351.859375 107.339844 C 351.742188 107.339844 351.625 107.304688 351.519531 107.234375 C 351.242188 107.046875 351.175781 106.667969 351.363281 106.394531 C 351.488281 106.210938 363.785156 87.960938 354.839844 72.535156 C 351.609375 66.960938 345.480469 65.511719 340.660156 65.328125 C 339.03125 73.394531 334.515625 81.121094 326.933594 84.503906 C 322.609375 86.433594 318.554688 85.988281 316.085938 83.316406 C 314.035156 81.097656 313.488281 78.570312 314.496094 76.003906 C 316.753906 70.261719 326.878906 64.964844 337.070312 64.195312 C 337.871094 64.136719 338.78125 64.09375 339.730469 64.101562 C 340.175781 61.429688 340.300781 58.566406 340.019531 55.558594 C 338.59375 40.324219 322.269531 31.230469 296.351562 31.230469 C 296.015625 31.230469 295.746094 30.960938 295.746094 30.625 Z M 339.507812 65.308594 C 338.660156 65.308594 337.871094 65.347656 337.164062 65.398438 C 327.386719 66.136719 317.722656 71.09375 315.621094 76.445312 C 314.78125 78.582031 315.234375 80.617188 316.972656 82.496094 C 319.109375 84.804688 322.558594 85.136719 326.441406 83.402344 C 332.210938 80.828125 337.660156 74.214844 339.507812 65.308594 Z M 261.230469 31.167969 L 285.066406 42.746094 C 285.148438 42.785156 285.238281 42.804688 285.328125 42.804688 C 285.425781 42.804688 285.523438 42.773438 285.609375 42.726562 C 285.632812 42.710938 285.652344 42.699219 285.675781 42.679688 C 285.703125 42.664062 285.730469 42.652344 285.753906 42.628906 C 285.777344 42.605469 285.777344 42.574219 285.796875 42.550781 C 285.820312 42.519531 285.855469 42.5 285.871094 42.464844 C 285.890625 42.425781 285.894531 42.382812 285.90625 42.34375 C 285.910156 42.320312 285.917969 42.300781 285.921875 42.277344 C 285.933594 42.167969 285.917969 42.0625 285.875 41.964844 C 285.875 41.957031 285.878906 41.949219 285.875 41.941406 L 280.355469 30.402344 L 285.871094 19.320312 C 285.984375 19.089844 285.941406 18.808594 285.757812 18.625 C 285.574219 18.441406 285.296875 18.394531 285.066406 18.507812 L 261.230469 30.082031 C 261.019531 30.183594 260.890625 30.394531 260.890625 30.625 C 260.890625 30.859375 261.019531 31.070312 261.230469 31.167969 Z M 261.230469 31.167969 " fill-opacity="1" fill-rule="nonzero"/></g><g clip-path="url(#f03f61bef1)"><path fill="#a2d9ee" d="M 137.109375 73.414062 C 137.085938 73.421875 137.066406 73.433594 137.042969 73.441406 C 137.738281 72.929688 138.585938 72.613281 139.515625 72.613281 L 241.730469 72.613281 C 244.023438 72.613281 245.894531 74.480469 245.894531 76.777344 L 245.894531 115.238281 C 245.894531 117.535156 244.023438 119.402344 241.730469 119.402344 L 231.792969 119.402344 L 231.792969 139.351562 C 231.792969 139.59375 231.644531 139.8125 231.417969 139.90625 C 231.34375 139.9375 231.265625 139.953125 231.1875 139.953125 C 231.03125 139.953125 230.875 139.890625 230.761719 139.777344 L 210.386719 119.402344 L 150.074219 119.402344 C 150.179688 119 150.273438 118.597656 150.363281 118.195312 C 151.167969 114.632812 151.5 111.339844 151.609375 108.6875 L 231.878906 108.6875 C 232.210938 108.6875 232.480469 108.417969 232.480469 108.085938 C 232.480469 107.75 232.210938 107.480469 231.878906 107.480469 L 151.644531 107.480469 C 151.679688 105.753906 151.621094 104.382812 151.5625 103.503906 C 154.367188 101.894531 156.660156 99.496094 158.140625 96.613281 L 231.878906 96.613281 C 232.210938 96.613281 232.480469 96.34375 232.480469 96.011719 C 232.480469 95.675781 232.210938 95.40625 231.878906 95.40625 L 158.714844 95.40625 C 159.539062 93.425781 160 91.261719 160 88.984375 C 160 87.453125 159.785156 85.960938 159.394531 84.535156 L 231.878906 84.535156 C 232.210938 84.535156 232.480469 84.265625 232.480469 83.933594 C 232.480469 83.597656 232.210938 83.328125 231.878906 83.328125 L 159.015625 83.328125 C 157.535156 79.183594 154.457031 75.746094 150.320312 73.824219 C 150.015625 73.683594 149.710938 73.542969 149.394531 73.417969 C 149.207031 73.34375 148.996094 73.367188 148.832031 73.480469 C 148.710938 73.5625 148.644531 73.6875 148.605469 73.824219 C 148.59375 73.875 148.566406 73.925781 148.566406 73.980469 L 148.566406 88.988281 C 148.566406 91.917969 146.183594 94.304688 143.25 94.304688 C 140.320312 94.304688 137.933594 91.917969 137.933594 88.988281 L 137.933594 73.980469 C 137.933594 73.777344 137.835938 73.59375 137.671875 73.480469 C 137.503906 73.363281 137.292969 73.339844 137.109375 73.414062 Z M 135.542969 103.835938 C 135.480469 103.804688 135.414062 103.777344 135.347656 103.742188 L 135.347656 108.859375 C 135.550781 106.75 135.566406 104.96875 135.542969 103.835938 Z M 107.074219 131.199219 L 53.152344 131.199219 C 52.820312 131.199219 52.550781 131.46875 52.550781 131.800781 L 52.550781 157.03125 C 52.929688 156.597656 53.332031 156.1875 53.757812 155.796875 C 56.746094 153.03125 60.726562 151.328125 65.105469 151.328125 C 72.019531 151.328125 78.132812 155.492188 80.675781 161.933594 C 80.75 162.117188 80.726562 162.328125 80.613281 162.492188 C 80.5 162.660156 80.316406 162.757812 80.113281 162.757812 L 65.105469 162.757812 C 62.667969 162.757812 60.628906 164.417969 60.003906 166.660156 C 59.898438 167.050781 59.828125 167.453125 59.8125 167.871094 L 107.078125 167.871094 C 107.410156 167.871094 107.679688 167.601562 107.679688 167.265625 L 107.679688 131.804688 C 107.679688 131.46875 107.410156 131.199219 107.074219 131.199219 Z M 266.640625 250.492188 C 266.296875 250.792969 265.960938 251.074219 265.648438 251.316406 C 266.394531 251.761719 267.148438 252.195312 267.910156 252.617188 C 267.820312 252.199219 267.785156 251.710938 267.816406 251.171875 C 267.851562 250.585938 267.980469 249.933594 268.203125 249.242188 L 268.207031 249.132812 C 267.898438 249.394531 267.585938 249.667969 267.277344 249.941406 C 267.058594 250.132812 266.847656 250.3125 266.640625 250.492188 Z M 283.96875 157.21875 C 280.5 153.089844 281.105469 148.140625 281.589844 144.160156 C 281.769531 142.707031 281.9375 141.332031 281.878906 140.195312 C 281.804688 138.746094 281.421875 136.875 280.976562 134.710938 C 280.78125 133.75 280.570312 132.722656 280.375 131.660156 C 279.800781 131.425781 279.296875 131.128906 278.90625 130.757812 C 277.191406 129.125 276.128906 126.457031 276.128906 123.800781 C 276.128906 123.140625 276.195312 122.503906 276.324219 121.882812 C 276.425781 121.375 276.574219 120.886719 276.761719 120.414062 C 249.457031 131.027344 230.042969 157.570312 230.042969 188.582031 C 230.042969 206.1875 236.296875 222.359375 246.703125 234.996094 L 247.808594 234.433594 L 247.8125 234.433594 L 248.578125 228.207031 C 248.578125 228.207031 248.578125 228.203125 248.578125 228.203125 C 248.757812 226.855469 253.042969 195.09375 261.347656 185.214844 C 269.113281 175.984375 286.875 168.496094 289.789062 167.308594 L 289.789062 161.25 C 287.535156 160.445312 285.53125 159.078125 283.96875 157.21875 Z M 314.300781 116.308594 C 314.597656 116.722656 314.851562 117.1875 315.082031 117.675781 C 317.46875 122.765625 316.402344 131.484375 315.773438 135.257812 C 315.765625 135.320312 315.738281 135.371094 315.710938 135.425781 C 316.105469 135.523438 316.507812 135.679688 316.910156 135.921875 C 317.847656 136.488281 318.5 137.480469 318.792969 138.796875 C 318.859375 139.101562 318.902344 139.421875 318.929688 139.75 C 321.136719 140.101562 323.53125 140.847656 325.035156 142.40625 C 326.976562 144.417969 326.917969 146.210938 326.867188 147.792969 C 326.832031 148.964844 326.800781 149.980469 327.582031 151.015625 C 328.417969 152.117188 329.695312 152.433594 331.046875 152.769531 C 332.6875 153.175781 334.382812 153.597656 335.121094 155.503906 C 335.941406 157.609375 334.933594 159.652344 334.042969 161.453125 C 333.582031 162.390625 333.148438 163.269531 332.980469 164.089844 C 332.648438 165.710938 333.089844 166.945312 333.515625 168.144531 C 333.992188 169.476562 334.480469 170.851562 333.820312 172.566406 C 333.152344 174.304688 331.457031 174.890625 329.839844 175.328125 C 334.195312 178.066406 338.230469 181.242188 340.488281 184.589844 C 345.757812 192.40625 350.15625 212.660156 352.015625 228.183594 C 352.015625 228.183594 352.015625 228.183594 352.015625 228.1875 C 352.066406 228.507812 353.007812 234.582031 352.636719 240.691406 C 352.601562 241.296875 352.554688 241.902344 352.488281 242.5 C 367.101562 229.121094 376.28125 209.90625 376.28125 188.582031 C 376.28125 152.050781 349.351562 121.691406 314.300781 116.308594 Z M 170.898438 232.660156 C 171.773438 234.871094 173.273438 236.675781 175.117188 237.742188 C 176.914062 238.78125 178.824219 238.988281 180.5 238.324219 C 182.171875 237.660156 183.421875 236.203125 184.023438 234.210938 C 184.636719 232.175781 184.492188 229.832031 183.617188 227.621094 C 182.742188 225.414062 181.246094 223.609375 179.402344 222.542969 C 177.601562 221.503906 175.6875 221.296875 174.019531 221.960938 C 172.34375 222.621094 171.09375 224.082031 170.496094 226.070312 C 169.878906 228.109375 170.023438 230.449219 170.898438 232.660156 Z M 234.539062 261.070312 C 234.605469 261.253906 234.574219 261.457031 234.460938 261.617188 C 234.347656 261.777344 234.167969 261.871094 233.96875 261.871094 L 151.660156 261.871094 C 150.097656 261.871094 148.703125 260.882812 148.191406 259.40625 L 125.589844 194.496094 C 125.328125 193.75 125.445312 192.953125 125.902344 192.308594 C 126.359375 191.664062 127.074219 191.292969 127.867188 191.292969 L 209.816406 191.292969 C 210.074219 191.292969 210.300781 191.457031 210.386719 191.699219 L 210.667969 192.5 L 234.398438 260.664062 Z M 169.777344 233.105469 C 170.75 235.566406 172.433594 237.585938 174.511719 238.785156 C 175.808594 239.535156 177.164062 239.914062 178.484375 239.914062 C 179.328125 239.914062 180.15625 239.761719 180.945312 239.449219 C 182.96875 238.648438 184.472656 236.910156 185.179688 234.5625 C 185.871094 232.261719 185.71875 229.640625 184.742188 227.179688 C 183.769531 224.71875 182.085938 222.699219 180.007812 221.5 C 177.882812 220.269531 175.597656 220.035156 173.574219 220.835938 C 171.550781 221.636719 170.046875 223.375 169.339844 225.722656 C 168.644531 228.019531 168.800781 230.644531 169.777344 233.105469 Z M 169.777344 233.105469 " fill-opacity="1" fill-rule="nonzero"/></g><path fill="#005187" d="M 19.523438 94.011719 L 19.523438 71.316406 C 19.523438 68.851562 20.972656 66.597656 23.21875 65.578125 L 41.15625 57.433594 C 41.15625 57.433594 41.160156 57.433594 41.160156 57.433594 C 40.949219 57.527344 40.800781 57.738281 40.800781 57.984375 L 40.800781 99.710938 C 40.800781 100.042969 41.070312 100.3125 41.40625 100.3125 L 25.824219 100.3125 C 22.347656 100.3125 19.523438 97.484375 19.523438 94.011719 Z M 29.03125 134.984375 C 29.050781 134.980469 29.070312 134.980469 29.09375 134.980469 C 33.242188 134.980469 34.347656 139.453125 34.347656 142.097656 C 34.347656 148.296875 31.238281 150.507812 31.105469 150.597656 C 31.074219 150.625 29.453125 151.882812 23.46875 154.277344 C 22.25 154.765625 21.308594 155.429688 20.730469 156.140625 C 20.242188 156.738281 20.003906 157.371094 20.113281 157.96875 C 20.175781 158.324219 20.386719 158.6875 20.730469 159.023438 C 21.472656 159.753906 22.914062 160.355469 25.339844 160.414062 C 28.246094 160.484375 34.785156 160.539062 40.800781 160.574219 L 40.800781 118.367188 C 40.800781 118.121094 40.949219 117.910156 41.160156 117.816406 C 41.160156 117.816406 41.15625 117.816406 41.15625 117.816406 L 23.21875 125.960938 C 20.972656 126.980469 19.519531 129.234375 19.519531 131.699219 L 19.519531 137.5 C 19.929688 137.339844 20.332031 137.1875 20.730469 137.046875 C 25.363281 135.390625 28.953125 134.992188 29.03125 134.984375 Z M 40.800781 181.660156 L 40.800781 176.066406 C 40.554688 176.066406 40.3125 176.066406 40.058594 176.066406 C 34.882812 176.066406 28.632812 176.011719 22.1875 175.824219 C 21.695312 175.808594 21.210938 175.78125 20.730469 175.746094 C 20.320312 175.71875 19.917969 175.679688 19.519531 175.636719 L 19.519531 176.132812 C 19.519531 179.605469 22.347656 182.4375 25.824219 182.4375 L 41.40625 182.4375 C 41.570312 182.4375 41.71875 182.367188 41.828125 182.261719 L 41.40625 182.261719 C 41.070312 182.261719 40.800781 181.992188 40.800781 181.660156 Z M 52.546875 47.328125 L 52.546875 57.378906 L 53.757812 57.378906 L 53.757812 47.320312 C 56.792969 46.996094 59.175781 44.449219 59.175781 41.328125 C 59.175781 37.984375 56.457031 35.265625 53.117188 35.265625 C 49.777344 35.265625 47.058594 37.984375 47.058594 41.328125 C 47.058594 44.472656 49.476562 47.039062 52.546875 47.328125 Z M 88.777344 47.328125 L 88.777344 57.378906 L 89.988281 57.378906 L 89.988281 47.320312 C 93.023438 46.996094 95.40625 44.449219 95.40625 41.328125 C 95.40625 37.984375 92.6875 35.265625 89.347656 35.265625 C 86.007812 35.265625 83.289062 37.984375 83.289062 41.328125 C 83.285156 44.472656 85.707031 47.039062 88.777344 47.328125 Z M 53.757812 100.3125 L 53.757812 105.355469 L 77.097656 105.355469 L 77.097656 100.3125 L 78.304688 100.3125 L 78.304688 117.765625 L 52.546875 117.765625 L 52.546875 100.3125 Z M 77.097656 112.601562 L 53.757812 112.601562 L 53.757812 117.644531 L 77.097656 117.644531 Z M 53.757812 106.5625 L 53.757812 111.394531 L 77.097656 111.394531 L 77.097656 106.5625 Z M 72.136719 79.261719 C 72.136719 76.679688 70.035156 74.582031 67.453125 74.582031 C 64.871094 74.582031 62.773438 76.679688 62.773438 79.261719 C 62.773438 81.84375 64.871094 83.941406 67.453125 83.941406 C 70.035156 83.941406 72.136719 81.84375 72.136719 79.261719 Z M 91.609375 74.578125 C 89.027344 74.578125 86.925781 76.679688 86.925781 79.261719 C 86.925781 81.84375 89.027344 83.941406 91.609375 83.941406 C 94.191406 83.941406 96.289062 81.84375 96.289062 79.261719 C 96.289062 76.679688 94.191406 74.578125 91.609375 74.578125 Z M 107.679688 70.679688 L 107.679688 87.011719 C 107.679688 88.769531 106.253906 90.195312 104.496094 90.195312 L 54.566406 90.195312 C 52.808594 90.195312 51.382812 88.769531 51.382812 87.011719 L 51.382812 70.679688 C 51.382812 68.925781 52.808594 67.496094 54.566406 67.496094 L 104.496094 67.496094 C 106.253906 67.496094 107.679688 68.925781 107.679688 70.679688 Z M 67.453125 85.152344 C 70.703125 85.152344 73.34375 82.507812 73.34375 79.261719 C 73.34375 76.015625 70.703125 73.371094 67.453125 73.371094 C 64.207031 73.371094 61.566406 76.015625 61.566406 79.261719 C 61.566406 82.507812 64.207031 85.152344 67.453125 85.152344 Z M 97.496094 79.261719 C 97.496094 76.015625 94.855469 73.371094 91.609375 73.371094 C 88.359375 73.371094 85.71875 76.015625 85.71875 79.261719 C 85.71875 82.507812 88.359375 85.152344 91.609375 85.152344 C 94.855469 85.152344 97.496094 82.507812 97.496094 79.261719 Z M 60.003906 166.660156 C 60.628906 164.417969 62.667969 162.757812 65.105469 162.757812 L 80.113281 162.757812 C 80.316406 162.757812 80.5 162.660156 80.613281 162.492188 C 80.726562 162.328125 80.75 162.117188 80.675781 161.933594 C 78.132812 155.492188 72.019531 151.328125 65.105469 151.328125 C 60.726562 151.328125 56.742188 153.03125 53.757812 155.796875 C 53.332031 156.1875 52.929688 156.597656 52.546875 157.03125 C 51.59375 158.113281 50.78125 159.320312 50.128906 160.625 C 49.933594 161.019531 49.746094 161.417969 49.578125 161.828125 C 48.800781 163.761719 48.359375 165.867188 48.359375 168.074219 C 48.359375 170.464844 48.871094 172.734375 49.777344 174.792969 C 49.957031 175.199219 50.144531 175.601562 50.355469 175.992188 C 51.40625 177.945312 52.835938 179.664062 54.542969 181.054688 C 55.082031 181.496094 55.65625 181.890625 56.25 182.261719 C 58.824219 183.875 61.851562 184.820312 65.105469 184.820312 C 68.347656 184.820312 71.40625 183.898438 74.007812 182.261719 C 74.59375 181.894531 75.160156 181.492188 75.695312 181.054688 C 77.859375 179.285156 79.59375 176.960938 80.675781 174.214844 C 80.75 174.03125 80.726562 173.820312 80.613281 173.65625 C 80.5 173.488281 80.316406 173.390625 80.113281 173.390625 L 65.105469 173.390625 C 62.175781 173.390625 59.789062 171.003906 59.789062 168.074219 C 59.789062 168.003906 59.808594 167.9375 59.8125 167.867188 C 59.828125 167.453125 59.898438 167.050781 60.003906 166.660156 Z M 159.015625 83.328125 C 157.535156 79.179688 154.457031 75.742188 150.320312 73.820312 C 150.015625 73.679688 149.710938 73.539062 149.394531 73.414062 C 149.207031 73.34375 148.996094 73.363281 148.832031 73.476562 C 148.710938 73.558594 148.644531 73.683594 148.605469 73.820312 C 148.59375 73.871094 148.566406 73.921875 148.566406 73.976562 L 148.566406 88.984375 C 148.566406 91.914062 146.183594 94.300781 143.25 94.300781 C 140.320312 94.300781 137.933594 91.917969 137.933594 88.984375 L 137.933594 73.976562 C 137.933594 73.777344 137.835938 73.589844 137.671875 73.476562 C 137.503906 73.363281 137.292969 73.339844 137.109375 73.414062 C 137.085938 73.421875 137.066406 73.433594 137.042969 73.441406 C 130.640625 76.003906 126.503906 82.09375 126.503906 88.984375 C 126.503906 95.359375 130.089844 100.914062 135.347656 103.742188 C 135.410156 103.777344 135.480469 103.804688 135.542969 103.835938 C 135.945312 104.046875 136.351562 104.25 136.769531 104.425781 C 138.765625 105.265625 140.953125 105.730469 143.25 105.730469 C 145.804688 105.730469 148.21875 105.140625 150.386719 104.113281 C 150.789062 103.921875 151.179688 103.722656 151.5625 103.503906 C 154.367188 101.894531 156.65625 99.496094 158.140625 96.613281 C 158.34375 96.21875 158.542969 95.816406 158.714844 95.40625 C 159.539062 93.425781 159.996094 91.257812 159.996094 88.984375 C 159.996094 87.449219 159.78125 85.960938 159.394531 84.535156 C 159.28125 84.125 159.15625 83.722656 159.015625 83.328125 Z M 280.964844 254.308594 C 280.3125 255.046875 279.394531 255.46875 278.4375 255.46875 C 278.410156 255.46875 278.378906 255.46875 278.347656 255.464844 C 277.550781 255.445312 276.835938 255.132812 276.441406 254.628906 C 276.421875 254.605469 276.414062 254.574219 276.398438 254.550781 C 275.863281 254.964844 275.152344 255.207031 274.398438 255.207031 C 274.316406 255.207031 274.234375 255.203125 274.148438 255.199219 C 273.308594 255.140625 272.578125 254.796875 272.148438 254.25 C 272.148438 254.25 272.148438 254.246094 272.148438 254.246094 C 271.617188 254.632812 270.996094 254.859375 270.382812 254.859375 C 270.242188 254.859375 270.097656 254.847656 269.960938 254.824219 C 269.683594 254.777344 269.433594 254.671875 269.203125 254.539062 C 269.195312 254.535156 269.191406 254.53125 269.183594 254.527344 L 269.136719 255.589844 L 284.035156 255.589844 C 282.964844 255.136719 282.042969 254.5625 281.316406 253.890625 C 281.1875 254.046875 281.070312 254.1875 280.964844 254.308594 Z M 352.015625 228.183594 C 351.964844 227.855469 351.648438 227.636719 351.328125 227.683594 C 351.027344 227.730469 350.828125 227.988281 350.828125 228.28125 L 328.039062 228.28125 L 328.015625 228.164062 C 328.015625 228.164062 328.011719 228.160156 328.011719 228.160156 L 327.917969 227.675781 L 322.046875 197.65625 C 321.984375 197.328125 321.660156 197.109375 321.339844 197.179688 C 321.011719 197.242188 320.800781 197.5625 320.863281 197.886719 L 326.824219 228.371094 L 326.828125 228.390625 C 326.828125 228.390625 326.828125 228.394531 326.828125 228.394531 L 328.25 235.726562 L 327.84375 235.789062 L 291.898438 241.332031 C 287.75 238.980469 284.070312 237.199219 278.238281 237.199219 C 278.234375 237.199219 278.230469 237.199219 278.226562 237.199219 C 275.371094 237.199219 272.492188 238.128906 269.902344 239.558594 C 269.878906 239.574219 269.855469 239.585938 269.835938 239.597656 L 270.328125 228.304688 C 270.328125 228.234375 270.3125 228.167969 270.289062 228.101562 C 270.285156 228.085938 270.285156 228.066406 270.28125 228.050781 C 270.246094 227.972656 270.199219 227.90625 270.140625 227.847656 C 270.136719 227.84375 270.136719 227.84375 270.136719 227.839844 C 270.089844 227.796875 265.625 223.496094 265.625 216.730469 C 265.625 209.851562 272.464844 198.195312 272.535156 198.078125 C 272.703125 197.792969 272.609375 197.421875 272.320312 197.253906 C 272.035156 197.082031 271.664062 197.179688 271.492188 197.464844 C 271.203125 197.953125 264.417969 209.523438 264.417969 216.730469 C 264.417969 222.089844 266.9375 225.933594 268.363281 227.675781 C 268.675781 228.058594 268.9375 228.347656 269.105469 228.519531 L 269.089844 228.882812 L 249.175781 228.882812 C 249.003906 228.882812 248.835938 228.808594 248.722656 228.679688 C 248.609375 228.550781 248.558594 228.378906 248.578125 228.207031 C 248.578125 228.207031 248.578125 228.203125 248.578125 228.203125 C 248.757812 226.855469 253.042969 195.09375 261.347656 185.214844 C 269.113281 175.984375 286.875 168.496094 289.789062 167.308594 C 289.988281 167.230469 290.121094 167.175781 290.171875 167.15625 C 290.464844 167.042969 290.804688 167.171875 290.941406 167.460938 C 290.945312 167.472656 290.96875 167.511719 291 167.566406 C 291.300781 168.109375 292.90625 170.59375 297.109375 171.019531 C 303.386719 171.632812 309.386719 167.609375 310.757812 166.617188 C 310.941406 166.484375 311.046875 166.402344 311.058594 166.394531 C 311.222656 166.265625 311.449219 166.226562 311.648438 166.304688 C 311.695312 166.324219 311.8125 166.367188 311.964844 166.429688 C 313.636719 167.082031 321.234375 170.148438 328.425781 174.457031 C 328.898438 174.746094 329.375 175.03125 329.84375 175.328125 C 334.195312 178.066406 338.230469 181.246094 340.488281 184.59375 C 345.757812 192.40625 350.160156 212.660156 352.015625 228.183594 Z M 315.996094 169.449219 C 316.210938 169.203125 316.316406 169.050781 316.328125 169.03125 C 316.507812 168.753906 316.429688 168.382812 316.152344 168.199219 C 315.875 168.023438 315.5 168.097656 315.316406 168.371094 C 315.3125 168.378906 315.179688 168.574219 314.835938 168.9375 C 314.265625 169.542969 313.113281 170.609375 311.019531 172.03125 C 308.320312 173.863281 302.757812 176.816406 295.914062 176.011719 C 290.664062 175.394531 287.394531 171.59375 286.324219 170.140625 C 286.070312 169.800781 285.941406 169.589844 285.933594 169.578125 C 285.761719 169.292969 285.390625 169.199219 285.105469 169.371094 C 284.820312 169.542969 284.726562 169.914062 284.898438 170.199219 C 284.921875 170.238281 285.027344 170.410156 285.203125 170.660156 C 286.210938 172.105469 289.738281 176.503906 295.773438 177.210938 C 296.613281 177.308594 297.433594 177.355469 298.234375 177.355469 C 304.328125 177.355469 309.1875 174.730469 311.695312 173.03125 C 314.253906 171.296875 315.476562 170.054688 315.996094 169.449219 Z M 330.734375 256.855469 C 328.597656 257.003906 326.324219 257.105469 323.894531 257.164062 C 323.183594 257.179688 322.332031 257.1875 321.367188 257.1875 C 318.0625 257.1875 313.425781 257.101562 308.585938 257.007812 C 306.46875 256.96875 304.253906 256.925781 302.039062 256.886719 C 302.375 257.324219 302.601562 257.84375 302.65625 258.410156 C 302.738281 259.214844 302.492188 260.011719 302 260.648438 C 301.953125 260.710938 301.914062 260.777344 301.863281 260.839844 C 301.332031 261.425781 300.589844 261.773438 299.808594 261.84375 C 302.757812 261.859375 305.726562 261.867188 308.621094 261.867188 C 317.929688 261.867188 326.453125 261.769531 331.066406 261.472656 C 331.246094 261.460938 331.417969 261.445312 331.589844 261.425781 L 331.9375 261.394531 C 332.101562 261.378906 332.253906 261.300781 332.355469 261.171875 C 332.460938 261.039062 332.507812 260.875 332.484375 260.707031 L 331.941406 256.765625 C 331.546875 256.800781 331.140625 256.828125 330.734375 256.855469 Z M 184.742188 227.179688 C 185.714844 229.640625 185.871094 232.261719 185.179688 234.5625 C 184.472656 236.910156 182.96875 238.644531 180.945312 239.445312 C 180.15625 239.757812 179.324219 239.914062 178.480469 239.914062 C 177.164062 239.914062 175.808594 239.535156 174.511719 238.785156 C 172.433594 237.585938 170.75 235.566406 169.777344 233.105469 C 168.800781 230.640625 168.644531 228.019531 169.339844 225.722656 C 170.046875 223.371094 171.550781 221.636719 173.574219 220.835938 C 175.597656 220.035156 177.882812 220.269531 180.007812 221.496094 C 182.085938 222.699219 183.765625 224.714844 184.742188 227.179688 Z M 183.617188 227.621094 C 182.742188 225.414062 181.246094 223.609375 179.402344 222.542969 C 177.601562 221.503906 175.691406 221.296875 174.019531 221.960938 C 172.34375 222.621094 171.09375 224.082031 170.496094 226.070312 C 169.882812 228.109375 170.023438 230.449219 170.898438 232.660156 C 171.773438 234.871094 173.273438 236.675781 175.117188 237.742188 C 176.914062 238.78125 178.828125 238.988281 180.5 238.324219 C 182.171875 237.660156 183.425781 236.203125 184.023438 234.210938 C 184.636719 232.175781 184.492188 229.832031 183.617188 227.621094 Z M 285.753906 42.628906 C 285.777344 42.609375 285.777344 42.574219 285.796875 42.550781 C 285.761719 42.597656 285.726562 42.648438 285.675781 42.683594 C 285.703125 42.664062 285.730469 42.652344 285.753906 42.628906 Z M 285.59375 41.660156 C 285.726562 41.722656 285.820312 41.835938 285.878906 41.964844 C 285.875 41.957031 285.878906 41.949219 285.875 41.941406 L 280.355469 30.402344 L 285.871094 19.320312 L 280.222656 30.664062 C 280.074219 30.964844 279.710938 31.085938 279.414062 30.9375 C 279.277344 30.867188 279.183594 30.753906 279.128906 30.621094 C 279.109375 30.570312 279.097656 30.511719 279.09375 30.457031 C 279.089844 30.429688 279.082031 30.402344 279.082031 30.375 C 279.085938 30.292969 279.101562 30.207031 279.144531 30.128906 L 284 20.371094 L 262.875 30.628906 L 284.039062 40.90625 Z M 285.59375 41.660156 " fill-opacity="1" fill-rule="nonzero"/><path fill="#231f20" d="M 299.144531 135.054688 C 297.042969 133.453125 294.089844 134.085938 294.0625 134.09375 C 293.742188 134.164062 293.414062 133.960938 293.339844 133.636719 C 293.269531 133.3125 293.472656 132.988281 293.796875 132.917969 C 293.9375 132.882812 297.324219 132.148438 299.875 134.09375 C 300.140625 134.292969 300.191406 134.671875 299.992188 134.9375 C 299.871094 135.097656 299.691406 135.175781 299.511719 135.175781 C 299.382812 135.175781 299.253906 135.136719 299.144531 135.054688 Z M 288.226562 133.976562 C 288.230469 133.640625 287.964844 133.371094 287.632812 133.363281 C 287.515625 133.367188 285.179688 133.351562 283.363281 134.691406 C 283.09375 134.890625 283.035156 135.269531 283.234375 135.539062 C 283.355469 135.699219 283.535156 135.78125 283.722656 135.78125 C 283.84375 135.78125 283.972656 135.742188 284.078125 135.664062 C 285.574219 134.5625 287.640625 134.582031 287.617188 134.570312 C 287.949219 134.558594 288.222656 134.308594 288.226562 133.976562 Z M 296.457031 136.421875 C 296.125 136.4375 295.867188 136.71875 295.882812 137.054688 L 296 139.542969 C 296.011719 139.867188 296.28125 140.117188 296.601562 140.117188 C 296.613281 140.117188 296.621094 140.117188 296.628906 140.117188 C 296.964844 140.101562 297.222656 139.820312 297.203125 139.484375 L 297.089844 136.996094 C 297.074219 136.664062 296.796875 136.375 296.457031 136.421875 Z M 289.21875 152.40625 C 289.152344 152.21875 289.179688 152.015625 289.292969 151.855469 C 289.40625 151.695312 289.585938 151.597656 289.785156 151.597656 C 289.835938 151.597656 294.953125 151.558594 299.511719 150.492188 C 299.71875 150.449219 299.941406 150.511719 300.085938 150.667969 C 300.234375 150.824219 300.289062 151.046875 300.226562 151.253906 C 300.179688 151.410156 299.039062 155.105469 294.847656 155.90625 C 294.515625 155.972656 294.199219 156 293.898438 156 C 291.238281 156 289.691406 153.734375 289.21875 152.40625 Z M 290.742188 152.78125 C 291.304688 153.722656 292.511719 155.121094 294.621094 154.722656 C 296.835938 154.296875 298.023438 152.902344 298.601562 151.921875 C 295.425781 152.546875 292.273438 152.730469 290.742188 152.78125 Z M 334.042969 161.453125 C 334.933594 159.652344 335.941406 157.609375 335.125 155.503906 C 334.382812 153.597656 332.6875 153.175781 331.046875 152.769531 C 329.695312 152.433594 328.421875 152.117188 327.582031 151.015625 C 326.800781 149.980469 326.832031 148.96875 326.871094 147.792969 C 326.921875 146.210938 326.976562 144.417969 325.035156 142.40625 C 323.53125 140.847656 321.140625 140.101562 318.929688 139.75 C 318.902344 139.421875 318.859375 139.105469 318.792969 138.796875 C 318.5 137.480469 317.847656 136.488281 316.910156 135.921875 C 316.507812 135.683594 316.105469 135.527344 315.710938 135.425781 C 315.738281 135.371094 315.765625 135.320312 315.773438 135.257812 C 316.402344 131.484375 317.46875 122.765625 315.082031 117.675781 C 314.851562 117.1875 314.601562 116.722656 314.300781 116.308594 C 314.285156 116.285156 314.269531 116.253906 314.25 116.226562 C 312.054688 113.246094 308.398438 111.511719 303.386719 111.074219 C 294.011719 110.257812 281.980469 114.34375 278.777344 117.398438 C 277.886719 118.246094 277.210938 119.273438 276.761719 120.414062 C 276.574219 120.886719 276.425781 121.378906 276.324219 121.882812 C 276.195312 122.503906 276.128906 123.140625 276.128906 123.800781 C 276.128906 126.457031 277.191406 129.125 278.90625 130.757812 C 279.296875 131.128906 279.800781 131.425781 280.371094 131.660156 C 280.570312 132.722656 280.78125 133.75 280.976562 134.710938 C 281.421875 136.875 281.804688 138.746094 281.878906 140.195312 C 281.933594 141.332031 281.769531 142.707031 281.589844 144.160156 C 281.105469 148.140625 280.5 153.089844 283.964844 157.21875 C 285.53125 159.078125 287.535156 160.445312 289.789062 161.25 L 289.789062 167.308594 C 289.988281 167.230469 290.117188 167.175781 290.171875 167.15625 C 290.464844 167.042969 290.804688 167.171875 290.941406 167.460938 C 290.945312 167.472656 290.96875 167.511719 290.996094 167.566406 L 290.996094 161.621094 C 291.773438 161.820312 292.570312 161.964844 293.390625 162.027344 C 293.753906 162.058594 294.140625 162.074219 294.546875 162.074219 C 297.589844 162.074219 301.796875 161.136719 306.246094 157.285156 C 306.5 157.066406 306.527344 156.6875 306.308594 156.433594 C 306.089844 156.179688 305.710938 156.152344 305.457031 156.371094 C 300.726562 160.464844 296.335938 161.046875 293.484375 160.824219 C 290.089844 160.554688 287.039062 158.996094 284.890625 156.441406 C 281.761719 152.714844 282.308594 148.246094 282.789062 144.304688 C 282.976562 142.796875 283.148438 141.375 283.085938 140.136719 C 283.007812 138.59375 282.617188 136.679688 282.164062 134.464844 C 282.003906 133.703125 281.839844 132.890625 281.679688 132.058594 C 285.746094 133.011719 291.75 131.980469 292.074219 131.921875 C 292.394531 131.863281 292.613281 131.5625 292.566406 131.242188 L 292.046875 127.621094 C 293.195312 129.296875 294.804688 131.183594 296.296875 131.339844 C 296.765625 131.390625 297.460938 131.292969 298.066406 130.5625 C 299.078125 129.339844 299.484375 127.871094 299.609375 126.566406 C 302.488281 132.832031 306.449219 140.695312 308.175781 140.695312 C 309.078125 140.695312 309.492188 140.136719 309.972656 139.488281 C 310.277344 139.078125 310.695312 138.535156 311.359375 137.894531 C 311.484375 137.773438 311.605469 137.65625 311.753906 137.527344 C 311.90625 137.40625 314.183594 135.691406 316.285156 136.957031 C 317.105469 137.449219 317.460938 138.371094 317.613281 139.058594 C 318.019531 140.890625 317.542969 143.304688 316.449219 144.929688 C 314.859375 147.292969 311.453125 147.125 311.414062 147.125 C 311.394531 147.125 311.378906 147.132812 311.359375 147.132812 C 311.214844 147.136719 311.074219 147.1875 310.964844 147.289062 C 310.847656 147.402344 310.777344 147.5625 310.777344 147.726562 L 310.757812 166.613281 C 310.9375 166.484375 311.046875 166.398438 311.054688 166.394531 C 311.222656 166.261719 311.449219 166.226562 311.644531 166.304688 C 311.695312 166.320312 311.808594 166.367188 311.964844 166.425781 C 313.636719 167.082031 321.234375 170.144531 328.421875 174.457031 C 328.898438 174.742188 329.371094 175.03125 329.839844 175.328125 C 331.457031 174.890625 333.152344 174.304688 333.820312 172.566406 C 334.480469 170.851562 333.992188 169.472656 333.515625 168.140625 C 333.089844 166.945312 332.648438 165.707031 332.980469 164.085938 C 333.148438 163.269531 333.582031 162.390625 334.042969 161.453125 Z M 295.746094 30.625 C 295.746094 30.292969 296.015625 30.023438 296.351562 30.023438 C 322.957031 30.023438 339.730469 39.527344 341.222656 55.449219 C 341.484375 58.230469 341.371094 61.191406 340.882812 64.132812 C 345.976562 64.351562 352.417969 65.945312 355.886719 71.929688 C 365.214844 88.023438 352.488281 106.890625 352.359375 107.078125 C 352.242188 107.25 352.054688 107.339844 351.859375 107.339844 C 351.742188 107.339844 351.625 107.304688 351.519531 107.234375 C 351.242188 107.046875 351.175781 106.667969 351.363281 106.394531 C 351.488281 106.210938 363.785156 87.960938 354.839844 72.535156 C 351.609375 66.960938 345.480469 65.511719 340.660156 65.328125 C 339.03125 73.394531 334.515625 81.121094 326.933594 84.503906 C 322.609375 86.433594 318.554688 85.988281 316.085938 83.316406 C 314.035156 81.097656 313.488281 78.570312 314.496094 76.003906 C 316.753906 70.261719 326.878906 64.964844 337.070312 64.195312 C 337.871094 64.136719 338.78125 64.09375 339.730469 64.101562 C 340.175781 61.429688 340.300781 58.566406 340.019531 55.558594 C 338.59375 40.324219 322.269531 31.230469 296.351562 31.230469 C 296.015625 31.230469 295.746094 30.960938 295.746094 30.625 Z M 339.507812 65.308594 C 338.660156 65.308594 337.871094 65.347656 337.164062 65.398438 C 327.386719 66.136719 317.722656 71.09375 315.621094 76.445312 C 314.78125 78.582031 315.234375 80.617188 316.972656 82.496094 C 319.109375 84.804688 322.558594 85.136719 326.441406 83.402344 C 332.210938 80.828125 337.660156 74.214844 339.507812 65.308594 Z M 288.671875 146.945312 C 289.195312 147.691406 290.28125 148.105469 291.679688 148.105469 C 291.78125 148.105469 291.886719 148.105469 291.992188 148.101562 C 292.328125 148.085938 292.585938 147.804688 292.570312 147.472656 C 292.558594 147.140625 292.261719 146.882812 291.941406 146.894531 C 290.84375 146.957031 289.972656 146.695312 289.65625 146.25 C 289.464844 145.976562 289.472656 145.585938 289.671875 145.085938 C 291.488281 140.601562 291.0625 138.140625 291.042969 138.039062 C 290.984375 137.710938 290.675781 137.5 290.34375 137.554688 C 290.019531 137.613281 289.800781 137.925781 289.855469 138.253906 C 289.859375 138.277344 290.21875 140.519531 288.554688 144.628906 C 288.097656 145.757812 288.363281 146.511719 288.671875 146.945312 Z M 315.316406 168.375 C 315.3125 168.378906 315.179688 168.574219 314.835938 168.9375 C 314.265625 169.542969 313.117188 170.609375 311.019531 172.03125 C 308.320312 173.863281 302.757812 176.820312 295.914062 176.011719 C 290.664062 175.394531 287.394531 171.59375 286.324219 170.144531 C 286.074219 169.800781 285.941406 169.589844 285.933594 169.578125 C 285.761719 169.292969 285.390625 169.199219 285.105469 169.375 C 284.820312 169.546875 284.726562 169.914062 284.898438 170.203125 C 284.921875 170.238281 285.027344 170.410156 285.203125 170.660156 C 286.210938 172.105469 289.738281 176.503906 295.773438 177.210938 C 296.613281 177.308594 297.433594 177.355469 298.234375 177.355469 C 304.328125 177.355469 309.1875 174.730469 311.699219 173.03125 C 314.253906 171.296875 315.480469 170.054688 315.996094 169.449219 C 316.210938 169.203125 316.316406 169.050781 316.328125 169.03125 C 316.507812 168.753906 316.429688 168.382812 316.152344 168.199219 C 315.875 168.023438 315.5 168.097656 315.316406 168.375 Z M 286.414062 137.042969 C 286.082031 137.058594 285.824219 137.339844 285.839844 137.671875 L 285.957031 140.160156 C 285.96875 140.484375 286.238281 140.734375 286.558594 140.734375 C 286.566406 140.734375 286.578125 140.734375 286.585938 140.734375 C 286.917969 140.71875 287.175781 140.4375 287.160156 140.105469 L 287.046875 137.617188 C 287.03125 137.285156 286.742188 136.992188 286.414062 137.042969 Z M 40.800781 99.710938 L 40.800781 57.984375 C 40.800781 57.738281 40.949219 57.527344 41.160156 57.433594 C 41.234375 57.402344 41.316406 57.378906 41.40625 57.378906 L 117.65625 57.378906 C 117.992188 57.378906 118.261719 57.652344 118.261719 57.984375 L 118.261719 99.710938 C 118.261719 100.042969 117.988281 100.3125 117.65625 100.3125 L 41.40625 100.3125 C 41.070312 100.3125 40.800781 100.042969 40.800781 99.710938 Z M 42.007812 99.105469 L 117.054688 99.105469 L 117.054688 58.589844 L 42.007812 58.589844 Z M 231.878906 95.402344 L 158.714844 95.402344 C 158.542969 95.816406 158.347656 96.214844 158.144531 96.613281 L 231.878906 96.613281 C 232.214844 96.613281 232.484375 96.339844 232.484375 96.007812 C 232.484375 95.675781 232.210938 95.402344 231.878906 95.402344 Z M 115.925781 233.933594 C 74.253906 232.691406 68.105469 202.183594 68.046875 201.875 C 67.988281 201.546875 67.671875 201.328125 67.34375 201.390625 C 67.015625 201.453125 66.800781 201.765625 66.859375 202.09375 C 66.917969 202.414062 73.210938 233.871094 115.890625 235.140625 C 115.894531 235.140625 115.902344 235.140625 115.910156 235.140625 C 116.234375 235.140625 116.503906 234.882812 116.511719 234.554688 C 116.523438 234.222656 116.261719 233.945312 115.925781 233.933594 Z M 352.015625 228.1875 C 352.066406 228.507812 353.007812 234.582031 352.636719 240.691406 C 352.601562 241.296875 352.554688 241.902344 352.488281 242.5 C 352.378906 243.542969 352.222656 244.574219 352.011719 245.554688 C 350.363281 253.113281 343.414062 255.824219 331.941406 256.765625 C 331.546875 256.796875 331.140625 256.824219 330.734375 256.855469 C 328.597656 257.003906 326.328125 257.105469 323.894531 257.164062 C 323.183594 257.179688 322.335938 257.1875 321.367188 257.1875 C 318.0625 257.1875 313.429688 257.101562 308.585938 257.007812 C 306.46875 256.96875 304.257812 256.925781 302.039062 256.886719 C 302.375 257.324219 302.601562 257.84375 302.65625 258.40625 C 302.738281 259.214844 302.492188 260.011719 302 260.644531 C 301.953125 260.707031 301.914062 260.777344 301.863281 260.835938 C 301.332031 261.425781 300.59375 261.773438 299.808594 261.84375 C 299.714844 261.851562 299.625 261.871094 299.53125 261.871094 L 233.96875 261.871094 C 234.164062 261.871094 234.347656 261.777344 234.460938 261.617188 C 234.574219 261.457031 234.605469 261.253906 234.539062 261.070312 L 234.398438 260.664062 L 299.53125 260.664062 C 300.078125 260.664062 300.601562 260.429688 300.96875 260.027344 C 301.335938 259.617188 301.511719 259.085938 301.457031 258.527344 C 301.359375 257.558594 300.449219 256.796875 299.386719 256.796875 L 237.03125 256.796875 C 236.777344 256.796875 236.546875 256.636719 236.460938 256.390625 L 214.683594 193.835938 C 214.402344 193.035156 213.648438 192.5 212.804688 192.5 L 210.667969 192.5 L 210.386719 191.699219 C 210.300781 191.453125 210.074219 191.292969 209.816406 191.292969 L 212.804688 191.292969 C 214.164062 191.292969 215.375 192.15625 215.824219 193.441406 L 231.839844 239.441406 C 233.328125 238.828125 234.960938 238.523438 236.671875 238.613281 L 238.105469 238.671875 C 238.523438 238.6875 238.929688 238.707031 239.328125 238.722656 L 246.703125 234.992188 L 247.808594 234.433594 L 247.8125 234.429688 L 248.578125 228.207031 C 248.578125 228.207031 248.578125 228.207031 248.578125 228.203125 C 248.558594 228.375 248.609375 228.546875 248.722656 228.675781 C 248.835938 228.808594 249.003906 228.882812 249.175781 228.882812 L 249.710938 228.882812 L 248.972656 234.898438 C 248.949219 235.097656 248.824219 235.273438 248.644531 235.363281 L 241.703125 238.878906 C 244.226562 239.101562 246.363281 239.574219 248.148438 240.929688 C 251.433594 243.417969 255.167969 250.257812 254.394531 252.363281 C 254.386719 252.390625 254.367188 252.414062 254.359375 252.441406 C 256.828125 251.988281 259.046875 251.324219 260.957031 250.542969 C 260.785156 249.894531 260.839844 248.996094 261.472656 247.769531 C 262.835938 245.125 265.433594 242.375 268.589844 240.339844 L 269.089844 228.882812 L 269.105469 228.519531 C 268.9375 228.34375 268.675781 228.058594 268.363281 227.675781 C 266.9375 225.929688 264.417969 222.085938 264.417969 216.730469 C 264.417969 209.523438 271.203125 197.953125 271.492188 197.464844 C 271.664062 197.175781 272.035156 197.082031 272.320312 197.25 C 272.609375 197.421875 272.703125 197.789062 272.535156 198.078125 C 272.464844 198.195312 265.625 209.851562 265.625 216.730469 C 265.625 223.496094 270.089844 227.796875 270.136719 227.839844 C 270.136719 227.839844 270.136719 227.84375 270.140625 227.84375 C 270.199219 227.902344 270.246094 227.972656 270.28125 228.050781 C 270.285156 228.0625 270.285156 228.082031 270.289062 228.097656 C 270.3125 228.164062 270.328125 228.234375 270.328125 228.304688 L 269.835938 239.59375 C 269.855469 239.582031 269.878906 239.570312 269.902344 239.558594 C 272.492188 238.125 275.371094 237.199219 278.226562 237.195312 C 278.230469 237.195312 278.238281 237.195312 278.238281 237.195312 C 284.070312 237.195312 287.75 238.980469 291.898438 241.328125 L 327.84375 235.785156 L 328.25 235.722656 L 326.828125 228.394531 C 326.828125 228.390625 326.828125 228.390625 326.828125 228.386719 L 326.824219 228.371094 L 320.863281 197.886719 C 320.796875 197.558594 321.011719 197.242188 321.339844 197.179688 C 321.660156 197.109375 321.984375 197.324219 322.046875 197.65625 L 327.917969 227.675781 L 328.011719 228.15625 C 328.015625 228.160156 328.015625 228.160156 328.015625 228.164062 L 328.039062 228.277344 L 329.558594 236.109375 C 329.589844 236.269531 329.554688 236.4375 329.457031 236.570312 C 329.363281 236.703125 329.21875 236.796875 329.058594 236.820312 L 291.875 242.554688 C 291.742188 242.578125 291.601562 242.546875 291.484375 242.480469 C 287.417969 240.171875 283.859375 238.402344 278.238281 238.402344 C 278.234375 238.402344 278.230469 238.402344 278.226562 238.402344 C 271.90625 238.40625 265.015625 243.535156 262.546875 248.324219 C 262.019531 249.347656 261.941406 250.164062 262.324219 250.621094 C 262.683594 251.042969 263.390625 251.148438 263.847656 251.007812 C 264.453125 250.816406 265.484375 249.910156 266.480469 249.03125 C 267.464844 248.164062 268.480469 247.28125 269.410156 246.75 C 271.507812 243.546875 275.109375 240.875 275.265625 240.761719 C 275.53125 240.566406 275.910156 240.621094 276.109375 240.890625 C 276.304688 241.160156 276.246094 241.539062 275.980469 241.734375 C 275.972656 241.738281 275.859375 241.824219 275.679688 241.964844 C 274.773438 242.671875 271.984375 244.964844 270.347656 247.515625 C 268.921875 249.746094 268.832031 251.714844 269.1875 252.722656 C 269.371094 253.242188 269.707031 253.554688 270.160156 253.632812 C 270.675781 253.714844 271.257812 253.480469 271.6875 253.050781 C 271.503906 251.742188 272.019531 249.847656 273.695312 247.675781 C 275.289062 245.613281 277.75 243.351562 278.855469 242.371094 C 279.179688 242.085938 279.394531 241.902344 279.429688 241.875 C 279.683594 241.65625 280.066406 241.691406 280.28125 241.941406 C 280.4375 242.128906 280.460938 242.382812 280.363281 242.589844 C 280.328125 242.664062 280.277344 242.734375 280.210938 242.792969 C 280.175781 242.824219 276.632812 245.84375 274.648438 248.414062 C 272.648438 251.007812 272.636719 252.910156 273.101562 253.503906 C 273.3125 253.777344 273.734375 253.957031 274.230469 253.992188 C 274.839844 254.03125 275.4375 253.847656 275.785156 253.507812 C 275.832031 253.460938 275.890625 253.429688 275.945312 253.402344 C 275.734375 251.851562 276.804688 250.015625 277.742188 248.648438 C 279.527344 246.046875 283.300781 243.722656 283.460938 243.621094 C 283.746094 243.449219 284.117188 243.539062 284.292969 243.824219 C 284.464844 244.109375 284.375 244.480469 284.089844 244.652344 C 284.054688 244.675781 280.378906 246.945312 278.738281 249.332031 C 277.214844 251.550781 276.757812 253.082031 277.390625 253.878906 C 277.53125 254.058594 277.894531 254.246094 278.382812 254.257812 C 278.757812 254.253906 279.460938 254.183594 280.058594 253.507812 C 280.265625 253.269531 280.519531 252.960938 280.808594 252.605469 C 282.179688 250.929688 284.25 248.40625 286.527344 247.355469 C 286.542969 247.351562 286.554688 247.339844 286.570312 247.335938 C 286.871094 247.199219 287.230469 247.332031 287.367188 247.636719 C 287.503906 247.941406 287.371094 248.296875 287.066406 248.433594 C 285.195312 249.28125 283.382812 251.382812 282.085938 252.960938 C 283.792969 254.582031 286.902344 255.609375 290.3125 255.570312 C 291.804688 255.566406 293.40625 255.574219 295.058594 255.589844 L 299.390625 255.589844 C 299.601562 255.589844 299.8125 255.609375 300.015625 255.648438 C 302.910156 255.691406 305.84375 255.746094 308.609375 255.800781 C 314.851562 255.917969 320.75 256.035156 323.867188 255.957031 C 339.933594 255.570312 348.988281 253.757812 350.832031 245.296875 C 352.367188 238.265625 350.839844 228.472656 350.824219 228.375 C 350.820312 228.339844 350.828125 228.3125 350.828125 228.28125 C 350.828125 227.988281 351.03125 227.730469 351.328125 227.683594 C 351.652344 227.636719 351.964844 227.855469 352.015625 228.183594 C 352.015625 228.183594 352.015625 228.1875 352.015625 228.1875 Z M 244.351562 255.050781 C 245.148438 254.296875 246.097656 250.722656 246.507812 248.644531 C 246.507812 248.640625 246.511719 248.636719 246.511719 248.632812 C 246.515625 248.625 246.511719 248.617188 246.515625 248.609375 C 246.910156 247.078125 247.339844 244.816406 247.347656 244.792969 C 247.410156 244.464844 247.71875 244.25 248.054688 244.3125 C 248.378906 244.375 248.59375 244.691406 248.53125 245.019531 C 248.515625 245.109375 248.136719 247.082031 247.757812 248.625 C 248.0625 249.035156 248.375 249.554688 248.699219 250.109375 C 249.207031 250.96875 249.777344 251.945312 250.3125 252.386719 C 250.804688 252.796875 251.664062 252.980469 252.3125 252.800781 C 252.78125 252.675781 253.101562 252.390625 253.261719 251.953125 C 253.707031 250.742188 250.734375 244.40625 247.421875 241.894531 C 245.140625 240.164062 242.015625 240.039062 238.058594 239.878906 L 236.617188 239.820312 C 235.070312 239.753906 233.59375 240.039062 232.246094 240.605469 L 233.058594 242.941406 C 233.195312 242.871094 233.363281 242.855469 233.523438 242.910156 C 233.839844 243.019531 234.003906 243.363281 233.894531 243.675781 C 233.894531 243.683594 233.777344 244.03125 233.636719 244.597656 L 236.058594 251.5625 C 236.023438 250.652344 236.046875 249.621094 236.136719 248.4375 C 236.328125 245.90625 237.164062 243.394531 237.199219 243.285156 C 237.304688 242.96875 237.652344 242.796875 237.964844 242.90625 C 238.28125 243.011719 238.449219 243.355469 238.34375 243.671875 C 238.335938 243.695312 237.523438 246.148438 237.339844 248.53125 C 237.101562 251.726562 237.324219 253.804688 238.019531 254.886719 C 238.25 255.242188 238.632812 255.640625 239.199219 255.582031 C 239.738281 255.515625 240.238281 255.019531 240.507812 254.320312 C 240.277344 252.269531 240.574219 246.804688 241.789062 243.660156 C 241.910156 243.347656 242.257812 243.195312 242.570312 243.3125 C 242.882812 243.433594 243.035156 243.785156 242.917969 244.09375 C 241.78125 247.035156 241.464844 252.492188 241.722656 254.328125 C 241.828125 255.074219 242.253906 255.375 242.589844 255.492188 C 243.152344 255.6875 243.863281 255.511719 244.351562 255.050781 Z M 247.65625 250.722656 C 247.566406 250.566406 247.476562 250.414062 247.386719 250.265625 C 247.199219 251.0625 246.933594 252.078125 246.613281 253.050781 C 247.507812 253.070312 248.382812 253.054688 249.242188 253.015625 C 248.671875 252.417969 248.15625 251.566406 247.65625 250.722656 Z M 268.207031 249.132812 C 267.898438 249.394531 267.585938 249.667969 267.277344 249.9375 C 267.058594 250.132812 266.847656 250.3125 266.640625 250.492188 C 266.296875 250.792969 265.960938 251.074219 265.648438 251.316406 C 265.125 251.71875 264.640625 252.027344 264.210938 252.160156 C 263.441406 252.402344 262.378906 252.253906 261.644531 251.605469 C 259.125 252.660156 256.101562 253.484375 252.730469 253.925781 C 252.695312 253.9375 252.664062 253.957031 252.625 253.96875 C 252.3125 254.054688 251.976562 254.070312 251.636719 254.058594 C 250.304688 254.191406 248.925781 254.273438 247.5 254.273438 C 247.0625 254.273438 246.617188 254.261719 246.171875 254.246094 C 245.949219 254.785156 245.710938 255.242188 245.457031 255.589844 L 267.925781 255.589844 L 268.035156 253.085938 C 267.988281 252.941406 267.945312 252.785156 267.910156 252.617188 C 267.820312 252.199219 267.785156 251.710938 267.816406 251.171875 C 267.851562 250.585938 267.980469 249.933594 268.203125 249.242188 Z M 284.035156 255.589844 C 282.964844 255.136719 282.042969 254.5625 281.316406 253.890625 C 281.1875 254.046875 281.070312 254.1875 280.964844 254.308594 C 280.3125 255.046875 279.394531 255.46875 278.4375 255.46875 C 278.410156 255.46875 278.378906 255.46875 278.351562 255.464844 C 277.550781 255.445312 276.839844 255.132812 276.441406 254.628906 C 276.421875 254.605469 276.417969 254.574219 276.398438 254.550781 C 275.863281 254.964844 275.15625 255.207031 274.398438 255.207031 C 274.316406 255.207031 274.234375 255.203125 274.148438 255.199219 C 273.308594 255.140625 272.578125 254.796875 272.152344 254.25 C 272.148438 254.25 272.148438 254.246094 272.148438 254.246094 C 271.617188 254.632812 271 254.859375 270.382812 254.859375 C 270.242188 254.859375 270.101562 254.847656 269.960938 254.824219 C 269.683594 254.777344 269.4375 254.671875 269.203125 254.539062 C 269.195312 254.535156 269.191406 254.53125 269.183594 254.527344 L 269.136719 255.589844 Z M 261.230469 31.167969 L 285.066406 42.746094 C 285.148438 42.785156 285.238281 42.804688 285.328125 42.804688 C 285.425781 42.804688 285.523438 42.773438 285.609375 42.726562 C 285.632812 42.710938 285.652344 42.699219 285.675781 42.679688 C 285.722656 42.648438 285.757812 42.597656 285.796875 42.550781 C 285.820312 42.519531 285.855469 42.5 285.871094 42.464844 C 285.890625 42.425781 285.894531 42.382812 285.90625 42.34375 C 285.910156 42.320312 285.917969 42.300781 285.921875 42.277344 C 285.933594 42.167969 285.917969 42.0625 285.875 41.964844 C 285.820312 41.835938 285.726562 41.722656 285.59375 41.65625 L 284.039062 40.902344 L 262.875 30.625 L 283.996094 20.367188 L 279.140625 30.125 C 279.101562 30.207031 279.085938 30.289062 279.082031 30.375 C 279.082031 30.402344 279.089844 30.429688 279.09375 30.453125 C 279.097656 30.511719 279.109375 30.566406 279.128906 30.621094 C 279.183594 30.753906 279.277344 30.867188 279.414062 30.933594 C 279.707031 31.082031 280.074219 30.960938 280.222656 30.664062 L 285.867188 19.320312 C 285.984375 19.089844 285.9375 18.808594 285.757812 18.625 C 285.574219 18.441406 285.296875 18.394531 285.0625 18.507812 L 261.226562 30.082031 C 261.019531 30.183594 260.886719 30.394531 260.886719 30.625 C 260.890625 30.859375 261.019531 31.070312 261.230469 31.167969 Z M 232.484375 108.085938 C 232.484375 107.75 232.210938 107.480469 231.878906 107.480469 L 151.644531 107.480469 C 151.679688 105.75 151.621094 104.382812 151.5625 103.503906 C 151.179688 103.722656 150.789062 103.921875 150.390625 104.109375 C 150.640625 108.792969 150.5625 123.113281 141.589844 134.164062 C 134.617188 142.753906 124.804688 146.03125 118.261719 147.28125 L 118.261719 132.265625 C 121.410156 131.167969 125.285156 129.285156 129.15625 126.027344 C 136.1875 120.105469 136.824219 108.964844 136.769531 104.425781 C 136.351562 104.246094 135.945312 104.046875 135.542969 103.835938 C 135.566406 104.96875 135.550781 106.75 135.347656 108.863281 C 134.855469 113.984375 133.25 121 128.378906 125.105469 C 124.828125 128.09375 121.234375 129.882812 118.261719 130.957031 L 118.261719 118.367188 C 118.261719 118.035156 117.988281 117.765625 117.65625 117.765625 L 41.40625 117.765625 C 41.316406 117.765625 41.238281 117.785156 41.160156 117.816406 C 40.949219 117.910156 40.800781 118.121094 40.800781 118.367188 L 40.800781 160.574219 C 34.785156 160.539062 28.25 160.484375 25.339844 160.414062 C 22.914062 160.355469 21.472656 159.753906 20.730469 159.023438 C 20.386719 158.6875 20.175781 158.324219 20.113281 157.96875 C 20.003906 157.371094 20.242188 156.738281 20.730469 156.140625 C 21.308594 155.429688 22.25 154.765625 23.46875 154.277344 C 29.457031 151.882812 31.074219 150.625 31.105469 150.597656 C 31.238281 150.507812 34.347656 148.300781 34.347656 142.097656 C 34.347656 139.453125 33.242188 134.980469 29.09375 134.980469 C 29.074219 134.980469 29.050781 134.980469 29.03125 134.984375 C 28.953125 134.992188 25.363281 135.390625 20.730469 137.050781 C 20.332031 137.191406 19.933594 137.339844 19.523438 137.5 C 14.234375 139.574219 7.929688 143.273438 3.898438 149.78125 C 0.554688 155.175781 0.15625 161.097656 2.808594 166.027344 C 5.695312 171.390625 11.710938 174.8125 19.523438 175.636719 C 19.921875 175.679688 20.320312 175.71875 20.730469 175.746094 C 21.210938 175.78125 21.695312 175.808594 22.1875 175.824219 C 28.632812 176.011719 34.882812 176.066406 40.058594 176.066406 C 40.3125 176.066406 40.554688 176.066406 40.800781 176.066406 L 40.800781 181.660156 C 40.800781 181.992188 41.074219 182.261719 41.40625 182.261719 L 56.25 182.261719 C 55.660156 181.890625 55.082031 181.496094 54.542969 181.054688 L 42.007812 181.054688 L 42.007812 176.066406 C 45.503906 176.054688 48.394531 176.023438 50.355469 175.992188 C 50.144531 175.601562 49.957031 175.199219 49.777344 174.792969 C 44.5 174.867188 33.675781 174.953125 22.222656 174.617188 C 13.554688 174.363281 6.867188 171.023438 3.871094 165.453125 C 1.429688 160.917969 1.8125 155.4375 4.921875 150.417969 C 12.453125 138.265625 28.335938 136.28125 29.125 136.1875 C 33.09375 136.21875 33.140625 141.855469 33.140625 142.097656 C 33.140625 147.617188 30.53125 149.527344 30.394531 149.625 C 30.378906 149.636719 28.777344 150.855469 23.019531 153.160156 C 20.1875 154.292969 18.578125 156.265625 18.925781 158.1875 C 19.296875 160.25 21.683594 161.535156 25.3125 161.621094 C 29.832031 161.730469 43.09375 161.800781 49.582031 161.832031 C 49.746094 161.417969 49.933594 161.019531 50.128906 160.625 C 48.058594 160.617188 45.148438 160.601562 42.007812 160.582031 L 42.007812 118.972656 L 117.054688 118.972656 L 117.054688 181.054688 L 75.695312 181.054688 C 75.160156 181.496094 74.59375 181.894531 74.007812 182.265625 L 117.65625 182.265625 C 117.992188 182.265625 118.261719 181.992188 118.261719 181.660156 L 118.261719 148.503906 C 125.003906 147.246094 135.25 143.890625 142.527344 134.925781 C 146.515625 130.015625 148.789062 124.492188 150.078125 119.402344 C 150.179688 118.996094 150.277344 118.59375 150.367188 118.195312 C 151.167969 114.632812 151.5 111.339844 151.609375 108.6875 L 231.878906 108.6875 C 232.210938 108.6875 232.484375 108.417969 232.484375 108.085938 Z M 149.363281 24.152344 L 231.878906 24.152344 C 232.210938 24.152344 232.480469 23.882812 232.480469 23.546875 C 232.480469 23.214844 232.210938 22.945312 231.878906 22.945312 L 149.363281 22.945312 C 149.03125 22.945312 148.761719 23.214844 148.761719 23.546875 C 148.761719 23.882812 149.03125 24.152344 149.363281 24.152344 Z M 149.363281 12.074219 L 231.878906 12.074219 C 232.210938 12.074219 232.480469 11.804688 232.480469 11.46875 C 232.480469 11.136719 232.210938 10.867188 231.878906 10.867188 L 149.363281 10.867188 C 149.03125 10.867188 148.761719 11.136719 148.761719 11.46875 C 148.761719 11.804688 149.03125 12.074219 149.363281 12.074219 Z M 231.878906 83.328125 L 159.015625 83.328125 C 159.15625 83.722656 159.28125 84.125 159.394531 84.535156 L 231.878906 84.535156 C 232.210938 84.535156 232.480469 84.265625 232.480469 83.929688 C 232.484375 83.597656 232.210938 83.328125 231.878906 83.328125 Z M 149.363281 36.226562 L 231.878906 36.226562 C 232.210938 36.226562 232.480469 35.957031 232.480469 35.625 C 232.480469 35.289062 232.210938 35.019531 231.878906 35.019531 L 149.363281 35.019531 C 149.03125 35.019531 148.761719 35.289062 148.761719 35.625 C 148.761719 35.957031 149.03125 36.226562 149.363281 36.226562 Z M 135.347656 42.777344 L 135.347656 4.316406 C 135.347656 2.019531 137.21875 0.152344 139.515625 0.152344 L 241.730469 0.152344 C 244.023438 0.152344 245.894531 2.019531 245.894531 4.316406 L 245.894531 42.777344 C 245.894531 45.074219 244.023438 46.941406 241.730469 46.941406 L 170.855469 46.941406 L 150.480469 67.316406 C 150.367188 67.429688 150.210938 67.492188 150.054688 67.492188 C 149.976562 67.492188 149.898438 67.476562 149.824219 67.445312 C 149.597656 67.351562 149.449219 67.132812 149.449219 66.890625 L 149.449219 46.941406 L 139.511719 46.941406 C 137.21875 46.941406 135.347656 45.074219 135.347656 42.777344 Z M 136.558594 42.777344 C 136.558594 44.40625 137.882812 45.734375 139.515625 45.734375 L 150.054688 45.734375 C 150.386719 45.734375 150.65625 46.003906 150.65625 46.339844 L 150.65625 65.429688 L 170.175781 45.910156 C 170.289062 45.796875 170.441406 45.734375 170.605469 45.734375 L 241.730469 45.734375 C 243.359375 45.734375 244.6875 44.40625 244.6875 42.777344 L 244.6875 4.316406 C 244.6875 2.6875 243.359375 1.359375 241.730469 1.359375 L 139.515625 1.359375 C 137.882812 1.359375 136.558594 2.6875 136.558594 4.316406 Z M 136.558594 42.777344 " fill-opacity="1" fill-rule="nonzero"/></svg>