<svg xmlns="http://www.w3.org/2000/svg" xmlns:xlink="http://www.w3.org/1999/xlink" width="350" zoomAndPan="magnify" viewBox="0 0 262.5 262.500001" height="350" preserveAspectRatio="xMidYMid meet" version="1.0"><defs><clipPath id="9c3125803e"><path d="M 12 16 L 260.945312 16 L 260.945312 200 L 12 200 Z M 12 16 " clip-rule="nonzero"/></clipPath><clipPath id="5ea81ae030"><path d="M 1.191406 204 L 20 204 L 20 246 L 1.191406 246 Z M 1.191406 204 " clip-rule="nonzero"/></clipPath><clipPath id="38ec346396"><path d="M 244 0 L 260.945312 0 L 260.945312 17 L 244 17 Z M 244 0 " clip-rule="nonzero"/></clipPath></defs><path fill="#005187" d="M 198.125 88.984375 C 198.117188 88.90625 198.097656 88.824219 198.058594 88.75 C 198.019531 88.785156 197.984375 88.832031 197.945312 88.871094 C 198.007812 88.90625 198.066406 88.949219 198.125 88.984375 Z M 198.125 88.984375 " fill-opacity="1" fill-rule="nonzero"/><g clip-path="url(#9c3125803e)"><path fill="#e6e6e6" d="M 12.835938 16.632812 L 260.625 16.632812 L 260.625 195.097656 C 260.625 197.472656 258.695312 199.398438 256.320312 199.398438 L 17.144531 199.398438 C 14.769531 199.398438 12.84375 197.472656 12.84375 195.097656 L 12.84375 16.632812 Z M 12.835938 16.632812 " fill-opacity="1" fill-rule="nonzero"/></g><path fill="#e6e6e6" d="M 6.550781 204.066406 L 64.511719 188.457031 C 64.925781 188.878906 65.253906 189.402344 65.4375 190.011719 L 75.542969 223.035156 C 76.15625 225.035156 75.027344 227.160156 73.027344 227.773438 L 18.871094 244.347656 C 16.871094 244.960938 14.75 243.832031 14.132812 241.832031 L 4.027344 208.804688 C 3.414062 206.804688 4.542969 204.683594 6.542969 204.066406 Z M 6.550781 204.066406 " fill-opacity="1" fill-rule="nonzero"/><path fill="#005187" d="M 68.820312 178.632812 L 49.4375 178.632812 C 45.285156 200.351562 53.230469 217.484375 54.582031 253.011719 L 52.011719 260.910156 L 97.195312 260.910156 C 97.75 258.363281 98.320312 255.65625 98.894531 252.835938 C 100.242188 255.714844 101.566406 258.425781 102.839844 260.910156 L 146.800781 260.910156 C 138.183594 230.957031 111.90625 178.632812 111.90625 178.632812 Z M 68.820312 178.632812 " fill-opacity="1" fill-rule="nonzero"/><path fill="#005187" d="M 247.472656 0 L 14.238281 0 C 13.464844 0 12.835938 0.625 12.835938 1.402344 L 12.835938 16.632812 L 247.472656 16.632812 Z M 247.472656 0 " fill-opacity="1" fill-rule="nonzero"/><path fill="#005187" d="M 150.964844 31.554688 L 150.964844 122.230469 L 248.148438 122.230469 L 248.148438 31.554688 Z M 187.953125 64.308594 C 187.886719 64.113281 187.800781 63.929688 187.707031 63.742188 L 192.035156 64.097656 C 193.609375 64.222656 195.125 63.285156 195.585938 61.773438 C 196.015625 60.359375 195.609375 58.699219 194.242188 57.683594 L 180.234375 47.28125 C 178.105469 45.703125 175.0625 46.78125 174.398438 49.347656 L 173.734375 51.910156 L 153.339844 32.898438 L 245.773438 32.898438 L 199.554688 75.976562 L 188.40625 65.585938 Z M 173.355469 53.390625 L 170.039062 66.238281 C 169.609375 67.894531 170.339844 69.4375 171.566406 70.269531 C 172.871094 71.152344 174.640625 70.933594 175.785156 69.84375 L 178.925781 66.847656 C 178.96875 67.046875 179.023438 67.242188 179.089844 67.4375 L 181.335938 73.785156 C 182.199219 76.234375 184.882812 77.515625 187.332031 76.652344 C 189.78125 75.789062 191.0625 73.101562 190.199219 70.652344 L 189.371094 68.320312 L 198.566406 76.894531 L 152.300781 120.015625 L 152.300781 33.773438 L 173.351562 53.394531 Z M 199.554688 77.808594 L 245.773438 120.890625 L 153.339844 120.890625 Z M 200.539062 76.894531 L 246.804688 33.773438 L 246.804688 120.019531 L 200.539062 76.898438 Z M 200.539062 76.894531 " fill-opacity="1" fill-rule="nonzero"/><path fill="#005187" d="M 43.964844 79.921875 C 44.046875 80.148438 44.097656 80.285156 44.097656 80.285156 C 47.367188 89.148438 55.15625 95.207031 63.90625 96.332031 C 71.039062 97.253906 77.144531 91.914062 81.757812 84.667969 C 79.453125 83.230469 77.980469 81.023438 78.351562 78.351562 C 78.746094 75.492188 81.957031 71.816406 88.105469 72.558594 C 88.515625 71.371094 88.976562 68.683594 89.214844 67.695312 C 89.214844 67.695312 91.472656 58.425781 90.980469 51.5 C 90.488281 44.570312 77.460938 40.339844 71.851562 43.375 C 69.628906 44.574219 67.453125 45.976562 65.660156 47.207031 C 63.984375 47.195312 62.28125 47.371094 60.585938 47.75 C 57.515625 48.441406 54.738281 49.742188 52.320312 51.5 C 52.320312 51.5 51.28125 51.9375 49.71875 53.707031 C 44.019531 59.320312 41.238281 67.863281 43.035156 76.546875 C 43.25 77.820312 43.71875 79.230469 43.957031 79.894531 C 43.957031 79.90625 43.960938 79.910156 43.964844 79.921875 Z M 43.964844 79.921875 " fill-opacity="1" fill-rule="nonzero"/><path fill="#ffffff" d="M 163.144531 102.136719 C 171.570312 106.929688 181.109375 99.453125 183.789062 97.449219 C 184.640625 96.8125 185.484375 96.179688 186.289062 95.542969 C 190.425781 92.28125 186.644531 86.804688 183.667969 88.996094 C 183.140625 89.378906 182.628906 89.785156 182.132812 90.203125 C 181.550781 90.695312 181.101562 90.085938 181.691406 89.585938 C 182.476562 88.921875 182.71875 88.839844 183.5625 88.253906 C 186.382812 86.300781 183.578125 81.476562 180.671875 83.480469 C 179.582031 84.234375 179.195312 84.71875 178.191406 85.566406 C 177.605469 86.058594 176.753906 85.214844 177.347656 84.71875 C 177.347656 84.71875 179.582031 83.457031 180.953125 82.386719 C 182.328125 81.316406 180.207031 76.871094 177.894531 78.300781 C 182.1875 75.054688 181.933594 74.691406 186.847656 72.511719 C 187.085938 72.40625 187.3125 72.464844 187.480469 72.589844 C 187.660156 71.257812 186.378906 68.914062 183.714844 69.617188 C 179.445312 70.742188 167.824219 77.804688 167.824219 77.804688 C 169.210938 72.21875 169.484375 67.886719 166.109375 67.167969 C 163.316406 66.566406 158.578125 76.726562 156.398438 83.222656 C 154.21875 89.722656 155.542969 97.8125 163.144531 102.136719 Z M 173.597656 81.542969 C 173.519531 81.605469 173.523438 81.597656 173.597656 81.542969 Z M 173.597656 81.542969 " fill-opacity="1" fill-rule="nonzero"/><g clip-path="url(#5ea81ae030)"><path fill="#ffffff" d="M 14.324219 241.773438 L 4.214844 208.746094 C 3.605469 206.746094 4.730469 204.625 6.734375 204.007812 L 4.472656 204.699219 C 2.472656 205.308594 1.347656 207.429688 1.957031 209.4375 L 12.0625 242.460938 C 12.675781 244.464844 14.796875 245.589844 16.804688 244.980469 L 19.0625 244.289062 C 17.0625 244.902344 14.9375 243.773438 14.324219 241.773438 Z M 14.324219 241.773438 " fill-opacity="1" fill-rule="nonzero"/></g><path fill="#ffffff" d="M 43.703125 188.152344 L 42.554688 188.628906 L 25.886719 195.542969 C 25.886719 195.542969 26.160156 197.332031 27.335938 198.46875 L 30.644531 197.578125 C 31.28125 198.277344 34.625 202.257812 35.917969 203.886719 C 38.015625 206.523438 41.285156 205.070312 40.917969 202.34375 C 40.40625 198.558594 39.789062 195.117188 39.789062 195.117188 L 47.214844 193.117188 L 43.703125 188.15625 Z M 43.703125 188.152344 " fill-opacity="1" fill-rule="nonzero"/><path fill="#ffffff" d="M 150.964844 130.542969 L 150.964844 199.398438 L 152.304688 199.398438 L 152.304688 131.886719 L 246.804688 131.886719 L 246.804688 199.398438 L 248.148438 199.398438 L 248.148438 130.542969 Z M 150.964844 130.542969 " fill-opacity="1" fill-rule="nonzero"/><path fill="#ffffff" d="M 101.152344 61.316406 L 137.042969 61.316406 L 137.042969 79.0625 L 101.152344 79.0625 Z M 101.152344 61.316406 " fill-opacity="1" fill-rule="nonzero"/><path fill="#ffffff" d="M 101.152344 84.054688 L 137.042969 84.054688 L 137.042969 101.804688 L 101.152344 101.804688 Z M 101.152344 84.054688 " fill-opacity="1" fill-rule="nonzero"/><path fill="#ffffff" d="M 96.039062 161.171875 L 136.414062 161.171875 L 136.414062 199.398438 L 137.753906 199.398438 L 137.753906 159.828125 L 96.039062 159.828125 Z M 96.039062 161.171875 " fill-opacity="1" fill-rule="nonzero"/><path fill="#ffffff" d="M 101.152344 107.066406 L 137.042969 107.066406 L 137.042969 124.8125 L 101.152344 124.8125 Z M 101.152344 107.066406 " fill-opacity="1" fill-rule="nonzero"/><path fill="#ffffff" d="M 43.324219 77.800781 C 43.597656 77.746094 43.839844 77.566406 43.941406 77.226562 C 44.503906 75.328125 45.339844 73.511719 46.566406 71.953125 C 47.570312 70.683594 48.773438 69.617188 50.074219 68.679688 C 50.660156 72.324219 52.234375 75.789062 54.214844 78.890625 C 56.902344 83.097656 60.367188 86.816406 64.210938 89.992188 C 66.257812 91.683594 68.421875 93.230469 70.71875 94.574219 C 71.664062 95.125 72.515625 93.660156 71.574219 93.109375 C 67.585938 90.78125 63.964844 87.832031 60.78125 84.488281 C 57.574219 81.117188 54.695312 77.226562 52.984375 72.867188 C 52.324219 71.191406 51.851562 69.453125 51.640625 67.679688 C 55.816406 65.3125 60.625 64.085938 65.359375 63.507812 C 70.382812 62.890625 75.566406 62.917969 80.5625 63.78125 C 82.933594 64.191406 85.3125 64.777344 87.519531 65.75 C 88.507812 66.1875 89.375 64.730469 88.371094 64.285156 C 83.976562 62.347656 79.070312 61.636719 74.300781 61.449219 C 68.914062 61.238281 63.414062 61.746094 58.210938 63.195312 C 55.90625 63.839844 53.644531 64.6875 51.523438 65.804688 C 51.292969 59.167969 54.5 53.296875 59.34375 48.925781 C 60.15625 48.191406 58.953125 46.996094 58.148438 47.730469 C 52.984375 52.382812 49.570312 58.773438 49.832031 65.839844 C 49.832031 66.152344 49.847656 66.460938 49.871094 66.765625 C 48.164062 67.910156 46.566406 69.238281 45.300781 70.863281 C 44.234375 72.21875 43.425781 73.71875 42.8125 75.3125 C 42.039062 70.390625 42.714844 65.554688 44.539062 61.320312 L 28.097656 61.320312 L 28.097656 79.070312 L 43.6875 79.070312 C 43.554688 78.652344 43.441406 78.230469 43.328125 77.804688 Z M 43.324219 77.800781 " fill-opacity="1" fill-rule="nonzero"/><path fill="#ffffff" d="M 28.09375 107.066406 L 63.984375 107.066406 L 63.984375 124.8125 L 28.09375 124.8125 Z M 28.09375 107.066406 " fill-opacity="1" fill-rule="nonzero"/><path fill="#ffffff" d="M 92.027344 75.671875 C 92.316406 75.339844 93.136719 74.398438 93.480469 73.980469 C 93.898438 73.476562 94.585938 72.144531 93.847656 71.371094 C 93.113281 70.59375 89.214844 67.695312 89.214844 67.695312 C 88.695312 70.285156 88.105469 72.558594 88.105469 72.558594 C 82.03125 71.996094 79.5625 74.3125 78.585938 77.390625 C 77.753906 80.007812 78.765625 83.132812 81.761719 84.667969 C 77.851562 90.8125 71.546875 97.117188 63.910156 96.332031 C 56.46875 95.375 49.722656 90.84375 45.855469 84.054688 L 28.097656 84.054688 L 28.097656 101.804688 L 63.988281 101.804688 L 63.988281 96.382812 C 64.375 96.664062 64.773438 96.921875 65.183594 97.167969 L 65.183594 107.492188 L 85.496094 107.492188 L 85.496094 97.085938 C 91.433594 93.835938 95.011719 87.695312 94.023438 81.324219 L 92.03125 75.675781 Z M 92.027344 75.671875 " fill-opacity="1" fill-rule="nonzero"/><path fill="#a2d9ee" d="M 133.898438 128.09375 C 112.027344 107.992188 93.585938 105.179688 85.945312 104.996094 L 85.488281 104.570312 L 65.175781 104.570312 C 65.175781 104.570312 65.144531 104.570312 65.078125 104.585938 C 42.503906 107.902344 20.230469 120.546875 10.335938 128.320312 C 4.53125 132.875 1.972656 140.421875 3.835938 147.5625 L 17.308594 199.105469 L 46.238281 187.097656 L 29.738281 146.378906 C 35.007812 144.871094 40.679688 142.992188 46.019531 141.105469 C 43.667969 158.253906 44.128906 178.632812 44.128906 178.632812 L 119.238281 178.632812 C 120.734375 169.238281 119.097656 159.363281 116.261719 150.394531 C 123.507812 152.804688 130.078125 154.160156 135.199219 154.929688 C 141.699219 155.90625 148.15625 152.949219 151.710938 147.429688 L 181.316406 101.503906 L 152.804688 88.257812 L 133.894531 128.09375 Z M 133.898438 128.09375 " fill-opacity="1" fill-rule="nonzero"/><path fill="#a2d9ee" d="M 38.289062 210.707031 L 38.753906 211.085938 C 38.601562 210.917969 38.453125 210.753906 38.300781 210.582031 C 38.300781 210.582031 38.300781 210.628906 38.292969 210.707031 Z M 38.289062 210.707031 " fill-opacity="1" fill-rule="nonzero"/><g clip-path="url(#38ec346396)"><path fill="#a2d9ee" d="M 259.222656 0 L 244 0 L 244 16.632812 L 260.628906 16.632812 L 260.628906 1.40625 C 260.628906 0.632812 260.003906 0 259.222656 0 Z M 259.222656 0 " fill-opacity="1" fill-rule="nonzero"/></g><path fill="#a2d9ee" d="M 48.058594 67 C 47.707031 68.269531 48.542969 69.609375 49.929688 69.996094 C 51.3125 70.378906 52.71875 69.65625 53.070312 68.390625 C 53.425781 67.121094 52.585938 65.777344 51.203125 65.390625 C 49.816406 65.007812 48.410156 65.730469 48.058594 67 Z M 48.058594 67 " fill-opacity="1" fill-rule="nonzero"/><path fill="#a2d9ee" d="M 136.765625 40.230469 C 136.921875 40.894531 137.011719 41.566406 137.035156 42.246094 C 137.058594 42.925781 137.015625 43.605469 136.90625 44.277344 C 136.796875 44.949219 136.625 45.605469 136.386719 46.242188 C 136.148438 46.882812 135.847656 47.492188 135.492188 48.070312 C 135.132812 48.652344 134.722656 49.191406 134.257812 49.6875 C 133.792969 50.1875 133.285156 50.636719 132.730469 51.035156 C 132.175781 51.433594 131.589844 51.773438 130.972656 52.058594 C 130.351562 52.339844 129.710938 52.558594 129.046875 52.714844 C 128.382812 52.871094 127.710938 52.964844 127.027344 52.988281 C 126.347656 53.011719 125.671875 52.96875 125 52.859375 C 124.324219 52.75 123.671875 52.578125 123.03125 52.339844 C 122.394531 52.101562 121.785156 51.800781 121.203125 51.445312 C 120.625 51.085938 120.085938 50.671875 119.585938 50.210938 C 119.085938 49.746094 118.640625 49.234375 118.242188 48.683594 C 117.84375 48.128906 117.5 47.542969 117.21875 46.921875 C 116.933594 46.304688 116.714844 45.660156 116.558594 45 C 116.402344 44.335938 116.3125 43.664062 116.289062 42.980469 C 116.265625 42.300781 116.304688 41.625 116.414062 40.949219 C 116.523438 40.277344 116.699219 39.621094 116.9375 38.984375 C 117.175781 38.34375 117.472656 37.734375 117.832031 37.15625 C 118.191406 36.578125 118.601562 36.039062 119.066406 35.539062 C 119.53125 35.039062 120.039062 34.589844 120.59375 34.191406 C 121.144531 33.792969 121.730469 33.453125 122.351562 33.171875 C 122.972656 32.886719 123.613281 32.667969 124.277344 32.511719 C 124.941406 32.355469 125.613281 32.265625 126.292969 32.242188 C 126.976562 32.214844 127.652344 32.257812 128.324219 32.367188 C 128.996094 32.476562 129.652344 32.652344 130.292969 32.890625 C 130.929688 33.128906 131.539062 33.425781 132.117188 33.785156 C 132.699219 34.144531 133.238281 34.554688 133.738281 35.019531 C 134.234375 35.484375 134.683594 35.992188 135.082031 36.546875 C 135.480469 37.097656 135.820312 37.683594 136.105469 38.304688 C 136.386719 38.925781 136.605469 39.566406 136.765625 40.230469 Z M 136.765625 40.230469 " fill-opacity="1" fill-rule="nonzero"/><path fill="#a2d9ee" d="M 90.925781 51.074219 C 92.621094 52.277344 94.699219 52.984375 96.9375 52.984375 C 102.671875 52.984375 107.316406 48.339844 107.316406 42.605469 C 107.316406 36.871094 102.671875 32.226562 96.9375 32.226562 C 91.199219 32.226562 86.554688 36.871094 86.554688 42.605469 C 86.554688 43.679688 86.71875 44.714844 87.023438 45.691406 C 90.285156 47.769531 90.933594 51.066406 90.933594 51.066406 Z M 90.925781 51.074219 " fill-opacity="1" fill-rule="nonzero"/><path fill="#a2d9ee" d="M 65.660156 47.265625 C 65.660156 47.265625 68.769531 45.164062 71.851562 43.367188 C 73.691406 42.300781 76.179688 42.375 78.425781 42.484375 C 78.425781 36.75 73.785156 32.226562 68.050781 32.226562 C 62.316406 32.226562 57.667969 36.871094 57.667969 42.605469 C 57.667969 44.621094 58.242188 46.5 59.238281 48.09375 C 59.238281 48.09375 62.105469 47.191406 65.660156 47.265625 Z M 65.660156 47.265625 " fill-opacity="1" fill-rule="nonzero"/><path fill="#a2d9ee" d="M 48.699219 42.609375 C 48.699219 43.292969 48.632812 43.964844 48.5 44.636719 C 48.367188 45.304688 48.171875 45.953125 47.910156 46.582031 C 47.648438 47.210938 47.332031 47.808594 46.953125 48.375 C 46.574219 48.945312 46.144531 49.46875 45.660156 49.949219 C 45.179688 50.433594 44.65625 50.863281 44.089844 51.242188 C 43.519531 51.621094 42.921875 51.9375 42.292969 52.199219 C 41.664062 52.460938 41.015625 52.65625 40.347656 52.789062 C 39.675781 52.921875 39.003906 52.988281 38.320312 52.988281 C 37.640625 52.988281 36.964844 52.921875 36.296875 52.789062 C 35.628906 52.65625 34.980469 52.460938 34.347656 52.199219 C 33.71875 51.9375 33.121094 51.621094 32.554688 51.242188 C 31.988281 50.863281 31.464844 50.433594 30.980469 49.949219 C 30.5 49.46875 30.070312 48.945312 29.691406 48.375 C 29.3125 47.808594 28.992188 47.210938 28.730469 46.582031 C 28.46875 45.953125 28.273438 45.304688 28.140625 44.636719 C 28.007812 43.964844 27.941406 43.292969 27.941406 42.609375 C 27.941406 41.929688 28.007812 41.253906 28.140625 40.585938 C 28.273438 39.917969 28.46875 39.265625 28.730469 38.636719 C 28.992188 38.007812 29.3125 37.410156 29.691406 36.84375 C 30.070312 36.277344 30.5 35.753906 30.980469 35.269531 C 31.464844 34.789062 31.988281 34.359375 32.554688 33.980469 C 33.121094 33.601562 33.71875 33.28125 34.347656 33.019531 C 34.980469 32.757812 35.628906 32.5625 36.296875 32.429688 C 36.964844 32.296875 37.640625 32.230469 38.320312 32.230469 C 39.003906 32.230469 39.675781 32.296875 40.347656 32.429688 C 41.015625 32.5625 41.664062 32.757812 42.292969 33.019531 C 42.921875 33.28125 43.519531 33.601562 44.089844 33.980469 C 44.65625 34.359375 45.179688 34.789062 45.660156 35.269531 C 46.144531 35.753906 46.574219 36.277344 46.953125 36.84375 C 47.332031 37.410156 47.648438 38.007812 47.910156 38.636719 C 48.171875 39.265625 48.367188 39.917969 48.5 40.585938 C 48.632812 41.253906 48.699219 41.929688 48.699219 42.609375 Z M 48.699219 42.609375 " fill-opacity="1" fill-rule="nonzero"/><path fill="#231f20" d="M 176.148438 103.550781 C 176.148438 103.832031 176.09375 104.105469 175.984375 104.363281 C 175.878906 104.625 175.722656 104.855469 175.523438 105.054688 C 175.324219 105.253906 175.097656 105.40625 174.835938 105.511719 C 174.578125 105.621094 174.304688 105.675781 174.023438 105.675781 C 173.742188 105.675781 173.472656 105.621094 173.210938 105.511719 C 172.953125 105.40625 172.722656 105.253906 172.523438 105.054688 C 172.324219 104.855469 172.171875 104.625 172.0625 104.363281 C 171.957031 104.105469 171.902344 103.832031 171.902344 103.550781 C 171.902344 103.269531 171.957031 103 172.0625 102.738281 C 172.171875 102.480469 172.324219 102.25 172.523438 102.050781 C 172.722656 101.851562 172.953125 101.699219 173.210938 101.589844 C 173.472656 101.484375 173.742188 101.429688 174.023438 101.429688 C 174.304688 101.429688 174.578125 101.484375 174.835938 101.589844 C 175.097656 101.699219 175.324219 101.851562 175.523438 102.050781 C 175.722656 102.25 175.878906 102.480469 175.984375 102.738281 C 176.09375 103 176.148438 103.269531 176.148438 103.550781 Z M 176.148438 103.550781 " fill-opacity="1" fill-rule="nonzero"/><path fill="#231f20" d="M 39.796875 220.140625 C 37.988281 220.140625 36.308594 218.96875 35.757812 217.152344 C 35.078125 214.925781 36.332031 212.558594 38.558594 211.882812 C 40.785156 211.195312 43.148438 212.457031 43.828125 214.683594 C 44.507812 216.910156 43.253906 219.273438 41.027344 219.953125 C 40.617188 220.082031 40.203125 220.140625 39.796875 220.140625 Z M 39.789062 212.3125 C 39.441406 212.3125 39.089844 212.367188 38.738281 212.472656 C 36.835938 213.050781 35.765625 215.074219 36.347656 216.96875 C 36.925781 218.863281 38.941406 219.9375 40.84375 219.359375 C 42.746094 218.78125 43.8125 216.757812 43.234375 214.863281 C 42.761719 213.3125 41.328125 212.3125 39.789062 212.3125 Z M 39.789062 212.3125 " fill-opacity="1" fill-rule="nonzero"/><path fill="#231f20" d="M 55.027344 253.921875 C 59.648438 253.613281 64.207031 253.996094 68.820312 254.28125 C 69.523438 254.324219 69.519531 253.226562 68.820312 253.183594 C 64.207031 252.902344 59.648438 252.515625 55.027344 252.828125 C 54.324219 252.875 54.320312 253.96875 55.027344 253.921875 Z M 55.027344 253.921875 " fill-opacity="1" fill-rule="nonzero"/><path fill="#231f20" d="M 99.722656 118.652344 C 106.5625 128.726562 111.90625 139.785156 115.515625 151.414062 C 116.527344 154.667969 117.402344 157.96875 118.136719 161.296875 C 118.316406 162.113281 119.570312 161.765625 119.390625 160.949219 C 116.746094 149.042969 112.339844 137.53125 106.363281 126.898438 C 104.652344 123.855469 102.808594 120.882812 100.84375 117.992188 C 100.375 117.300781 99.246094 117.957031 99.722656 118.652344 Z M 99.722656 118.652344 " fill-opacity="1" fill-rule="nonzero"/><path fill="#231f20" d="M 69.765625 197.21875 C 70.445312 199.996094 71.648438 202.664062 73.140625 205.09375 C 74.636719 207.519531 76.421875 209.753906 78.792969 211.277344 C 79.5 211.726562 80.152344 210.605469 79.453125 210.152344 C 77.214844 208.714844 75.515625 206.507812 74.160156 204.253906 C 72.800781 202 71.664062 199.472656 71.023438 196.867188 C 70.824219 196.054688 69.570312 196.398438 69.773438 197.214844 Z M 69.765625 197.21875 " fill-opacity="1" fill-rule="nonzero"/><path fill="#231f20" d="M 68.035156 211.34375 C 76.144531 211.589844 84.257812 211.429688 92.347656 210.859375 C 93.175781 210.800781 93.1875 209.5 92.347656 209.558594 C 84.257812 210.128906 76.144531 210.289062 68.035156 210.042969 C 67.195312 210.015625 67.195312 211.316406 68.035156 211.34375 Z M 68.035156 211.34375 " fill-opacity="1" fill-rule="nonzero"/><path fill="#231f20" d="M 78.5625 211.050781 C 81.8125 216.617188 84.453125 222.535156 87.078125 228.414062 C 90.214844 235.441406 93.253906 242.515625 96.5 249.492188 C 98.335938 253.449219 100.242188 257.378906 102.277344 261.238281 C 102.664062 261.980469 103.789062 261.320312 103.398438 260.578125 C 96.328125 247.140625 90.84375 232.96875 84.308594 219.273438 C 82.871094 216.261719 81.367188 213.269531 79.683594 210.390625 C 79.261719 209.667969 78.140625 210.320312 78.5625 211.050781 Z M 78.5625 211.050781 " fill-opacity="1" fill-rule="nonzero"/><path fill="#231f20" d="M 99.191406 253.921875 C 103.8125 253.613281 108.367188 253.996094 112.980469 254.28125 C 113.6875 254.324219 113.683594 253.226562 112.980469 253.183594 C 108.367188 252.902344 103.8125 252.515625 99.191406 252.828125 C 98.488281 252.875 98.484375 253.96875 99.191406 253.921875 Z M 99.191406 253.921875 " fill-opacity="1" fill-rule="nonzero"/><path fill="#231f20" d="M 89.769531 64.90625 C 90.222656 65.324219 90.59375 65.839844 90.890625 66.417969 C 91.90625 68.421875 91.789062 70.695312 90.863281 72.664062 L 91.632812 74.566406 C 91.675781 74.523438 91.710938 74.476562 91.75 74.417969 C 93.449219 71.765625 93.734375 68.4375 92.296875 65.597656 C 91.785156 64.59375 91.039062 63.726562 90.125 63.128906 L 89.773438 64.90625 Z M 89.769531 64.90625 " fill-opacity="1" fill-rule="nonzero"/><path fill="#231f20" d="M 22.128906 191.90625 C 22.128906 192.1875 22.074219 192.457031 21.964844 192.714844 C 21.859375 192.972656 21.707031 193.199219 21.507812 193.398438 C 21.308594 193.597656 21.082031 193.75 20.824219 193.855469 C 20.566406 193.964844 20.296875 194.019531 20.015625 194.019531 C 19.734375 194.019531 19.464844 193.964844 19.207031 193.855469 C 18.949219 193.75 18.71875 193.597656 18.523438 193.398438 C 18.324219 193.199219 18.171875 192.972656 18.0625 192.714844 C 17.957031 192.457031 17.902344 192.1875 17.902344 191.90625 C 17.902344 191.625 17.957031 191.355469 18.0625 191.097656 C 18.171875 190.839844 18.324219 190.609375 18.523438 190.414062 C 18.71875 190.214844 18.949219 190.0625 19.207031 189.953125 C 19.464844 189.847656 19.734375 189.792969 20.015625 189.792969 C 20.296875 189.792969 20.566406 189.847656 20.824219 189.953125 C 21.082031 190.0625 21.308594 190.214844 21.507812 190.414062 C 21.707031 190.609375 21.859375 190.839844 21.964844 191.097656 C 22.074219 191.355469 22.128906 191.625 22.128906 191.90625 Z M 22.128906 191.90625 " fill-opacity="1" fill-rule="nonzero"/><path fill="#231f20" d="M 46.664062 186.328125 C 44.640625 181.007812 42.617188 175.695312 40.464844 170.429688 C 36.851562 161.617188 33.027344 152.855469 28.527344 144.457031 C 26.351562 140.394531 24.011719 136.382812 21.175781 132.75 C 20.664062 132.097656 19.753906 133.015625 20.257812 133.664062 C 22.742188 136.847656 24.808594 140.359375 26.746094 143.886719 C 29.027344 148.046875 31.113281 152.320312 33.089844 156.625 C 36.65625 164.378906 39.90625 172.273438 42.976562 180.230469 C 43.804688 182.375 44.605469 184.527344 45.421875 186.671875 C 45.714844 187.441406 46.964844 187.109375 46.667969 186.328125 Z M 46.664062 186.328125 " fill-opacity="1" fill-rule="nonzero"/><path fill="#231f20" d="M 38.179688 192.128906 C 38.84375 194.238281 39.46875 196.367188 39.832031 198.550781 C 40.015625 199.65625 40.128906 200.796875 40.03125 201.917969 C 39.96875 202.675781 39.769531 203.617188 39.117188 204.097656 C 38.464844 204.578125 39.09375 205.707031 39.769531 205.214844 C 41.65625 203.835938 41.476562 201.0625 41.195312 199.011719 C 40.863281 196.546875 40.164062 194.15625 39.421875 191.785156 C 39.175781 190.996094 37.921875 191.332031 38.171875 192.128906 Z M 38.179688 192.128906 " fill-opacity="1" fill-rule="nonzero"/><path fill="#231f20" d="M 177.902344 85.746094 C 179.210938 85.03125 180.453125 84.191406 181.648438 83.296875 C 181.914062 83.097656 182.078125 82.738281 181.875 82.429688 C 181.707031 82.164062 181.292969 81.988281 181.007812 82.203125 C 179.8125 83.097656 178.570312 83.929688 177.257812 84.652344 C 176.96875 84.808594 176.847656 85.234375 177.03125 85.519531 C 177.214844 85.804688 177.589844 85.921875 177.902344 85.746094 Z M 177.902344 85.746094 " fill-opacity="1" fill-rule="nonzero"/><path fill="#231f20" d="M 181.71875 90.527344 C 182.699219 89.992188 183.597656 89.324219 184.59375 88.800781 C 184.890625 88.648438 185 88.210938 184.820312 87.933594 C 184.625 87.632812 184.265625 87.539062 183.953125 87.707031 C 182.960938 88.226562 182.0625 88.894531 181.074219 89.433594 C 180.785156 89.589844 180.664062 90.019531 180.851562 90.300781 C 181.035156 90.585938 181.40625 90.703125 181.71875 90.527344 Z M 181.71875 90.527344 " fill-opacity="1" fill-rule="nonzero"/><path fill="#231f20" d="M 186.574219 71.960938 C 182.308594 74.820312 177.710938 77.15625 173.34375 79.863281 C 172.648438 80.296875 173.289062 81.390625 173.988281 80.960938 C 178.351562 78.253906 182.949219 75.914062 187.214844 73.054688 C 187.890625 72.601562 187.257812 71.5 186.574219 71.960938 Z M 186.574219 71.960938 " fill-opacity="1" fill-rule="nonzero"/><path fill="#231f20" d="M 66.085938 48.261719 C 68.113281 48.277344 70.113281 48.492188 72.058594 49.097656 C 74 49.703125 75.6875 50.605469 77.382812 51.605469 C 80.980469 53.726562 84.171875 56.492188 86.1875 60.199219 C 87.152344 61.972656 87.804688 63.933594 87.878906 65.964844 C 87.917969 67.050781 89.609375 67.054688 89.574219 65.964844 C 89.421875 61.835938 87.292969 58.035156 84.535156 55.058594 C 82.992188 53.394531 81.203125 51.957031 79.277344 50.769531 C 77.351562 49.578125 75.445312 48.511719 73.363281 47.753906 C 71.03125 46.902344 68.566406 46.589844 66.089844 46.570312 C 65 46.558594 65 48.253906 66.089844 48.265625 Z M 66.085938 48.261719 " fill-opacity="1" fill-rule="nonzero"/><path fill="#231f20" d="M 82.921875 78.148438 C 83.03125 78.03125 83.148438 77.914062 83.269531 77.808594 C 83.328125 77.757812 83.386719 77.710938 83.441406 77.664062 C 83.480469 77.636719 83.523438 77.605469 83.554688 77.574219 C 83.523438 77.609375 83.441406 77.65625 83.527344 77.59375 C 83.789062 77.40625 84.066406 77.234375 84.347656 77.089844 C 84.417969 77.050781 84.484375 77.019531 84.554688 76.988281 C 84.585938 76.972656 84.632812 76.960938 84.660156 76.941406 C 84.621094 76.96875 84.523438 76.992188 84.621094 76.957031 C 84.777344 76.898438 84.921875 76.839844 85.082031 76.792969 C 85.238281 76.746094 85.390625 76.703125 85.550781 76.671875 C 85.632812 76.65625 85.71875 76.640625 85.800781 76.625 C 85.839844 76.621094 85.875 76.613281 85.914062 76.609375 C 86.023438 76.589844 85.703125 76.636719 85.898438 76.609375 C 86.117188 76.582031 86.308594 76.535156 86.472656 76.371094 C 86.613281 76.230469 86.71875 76 86.707031 75.796875 C 86.691406 75.402344 86.351562 74.933594 85.898438 74.988281 C 84.332031 75.171875 82.875 75.847656 81.777344 76.992188 C 81.484375 77.300781 81.453125 77.84375 81.777344 78.140625 C 82.105469 78.441406 82.617188 78.46875 82.925781 78.140625 Z M 82.921875 78.148438 " fill-opacity="1" fill-rule="nonzero"/><path fill="#231f20" d="M 62.257812 96.332031 C 62.257812 96.332031 71.832031 98.929688 79.855469 87.707031 C 79.898438 90.859375 79.972656 94.171875 79.972656 96.140625 C 79.972656 100.914062 76.746094 100.746094 73.828125 101.046875 C 70.59375 101.382812 71.152344 103.167969 66.410156 103.167969 C 62.542969 103.167969 63.171875 100.207031 60.914062 100.328125 C 57.5625 100.511719 56.269531 97.703125 56.34375 94.332031 C 59.472656 95.875 62.25 96.332031 62.25 96.332031 Z M 62.257812 96.332031 " fill-opacity="1" fill-rule="nonzero"/><path fill="#231f20" d="M 66.417969 103.453125 C 64.105469 103.453125 63.285156 102.4375 62.625 101.613281 C 62.136719 101.003906 61.777344 100.566406 60.933594 100.613281 C 59.613281 100.6875 58.515625 100.320312 57.691406 99.519531 C 56.589844 98.453125 56.015625 96.609375 56.070312 94.324219 L 56.078125 93.882812 L 56.472656 94.078125 C 59.523438 95.578125 62.277344 96.046875 62.304688 96.054688 L 62.332031 96.054688 C 62.425781 96.085938 71.820312 98.460938 79.628906 87.539062 L 80.128906 86.835938 L 80.140625 87.695312 C 80.15625 88.785156 80.171875 89.898438 80.195312 90.960938 C 80.226562 92.957031 80.257812 94.839844 80.257812 96.136719 C 80.257812 100.75 77.269531 101.015625 74.628906 101.25 C 74.371094 101.273438 74.109375 101.296875 73.859375 101.324219 C 72.535156 101.460938 71.882812 101.851562 71.1875 102.261719 C 70.207031 102.847656 69.199219 103.445312 66.410156 103.445312 Z M 61.050781 100.042969 C 62.082031 100.042969 62.582031 100.660156 63.0625 101.261719 C 63.679688 102.023438 64.375 102.890625 66.417969 102.890625 C 69.046875 102.890625 69.988281 102.324219 70.902344 101.78125 C 71.621094 101.355469 72.359375 100.917969 73.800781 100.765625 C 74.058594 100.738281 74.316406 100.714844 74.578125 100.691406 C 77.324219 100.449219 79.699219 100.238281 79.695312 96.140625 C 79.695312 94.851562 79.660156 92.972656 79.628906 90.976562 C 79.621094 90.179688 79.605469 89.363281 79.59375 88.546875 C 75.53125 93.898438 71.136719 95.832031 68.113281 96.507812 C 64.785156 97.242188 62.425781 96.667969 62.199219 96.609375 C 61.972656 96.574219 59.507812 96.132812 56.632812 94.785156 C 56.660156 96.699219 57.167969 98.234375 58.085938 99.117188 C 58.792969 99.800781 59.738281 100.117188 60.910156 100.054688 C 60.960938 100.054688 61.007812 100.054688 61.054688 100.054688 Z M 61.050781 100.042969 " fill-opacity="1" fill-rule="nonzero"/><path fill="#231f20" d="M 46.167969 140.691406 C 46.347656 136.621094 46.445312 132.542969 46.808594 128.484375 C 47.140625 124.75 47.679688 120.96875 48.949219 117.425781 C 49.589844 115.628906 50.453125 113.921875 51.601562 112.394531 C 52.0625 111.785156 51.035156 111.195312 50.582031 111.792969 C 48.441406 114.632812 47.300781 118.097656 46.59375 121.542969 C 45.789062 125.480469 45.492188 129.515625 45.292969 133.523438 C 45.171875 135.910156 45.09375 138.300781 44.988281 140.683594 C 44.957031 141.449219 46.140625 141.445312 46.171875 140.683594 Z M 46.167969 140.691406 " fill-opacity="1" fill-rule="nonzero"/><path fill="#231f20" d="M 133.878906 128.421875 C 135.160156 129.578125 136.375 130.882812 137.40625 132.226562 C 137.601562 132.480469 137.917969 132.617188 138.21875 132.4375 C 138.464844 132.289062 138.628906 131.886719 138.429688 131.628906 C 137.3125 130.167969 136.074219 128.808594 134.710938 127.578125 C 134.472656 127.363281 134.105469 127.34375 133.875 127.578125 C 133.65625 127.792969 133.636719 128.199219 133.875 128.414062 Z M 133.878906 128.421875 " fill-opacity="1" fill-rule="nonzero"/></svg>